/* XPM */
static char *_20f63e8819a4aded22949096b54ad9fm71eXWPYC7IIQKxo_0[] = {
/* columns rows colors chars-per-pixel */
"96 96 75 1 ",
"  c #313C18",
". c #414820",
"X c #6A7D39",
"o c #625D4A",
"O c #6A5D4A",
"+ c #7B504A",
"@ c #6A614A",
"# c #6A7D41",
"$ c #6A6552",
"% c #736552",
"& c #736952",
"* c #7B6D52",
"= c #736D5A",
"- c #7B6D5A",
"; c #7B7162",
": c #8B4C4A",
"> c #83554A",
", c #8B504A",
"< c #8B5552",
"1 c #835952",
"2 c #8B5D52",
"3 c #945952",
"4 c #9C5952",
"5 c #945D5A",
"6 c #8B6152",
"7 c #8B615A",
"8 c #8B695A",
"9 c #946152",
"0 c #94655A",
"q c #9C615A",
"w c #94695A",
"e c #9C6562",
"r c #946D62",
"t c #9C6962",
"y c #9C6D6A",
"u c #837162",
"i c #83756A",
"p c #83796A",
"a c #8B796A",
"s c #9C7162",
"d c #9C756A",
"f c #A46D6A",
"g c #A4756A",
"h c #AC716A",
"j c #A47173",
"k c #AC7573",
"l c #A47973",
"z c #AC7973",
"x c #AC7D7B",
"c c #B47973",
"v c #B47D7B",
"b c #738141",
"n c #73854A",
"m c #7B854A",
"M c #7B894A",
"N c #8B954A",
"B c #94954A",
"V c #94994A",
"C c #949952",
"Z c #9C9D52",
"A c #9C9D5A",
"S c #9CA15A",
"D c #A4A15A",
"F c #A4817B",
"G c #AC817B",
"H c #B4817B",
"J c #B49D7B",
"K c #A4A562",
"L c #D5CEBD",
"P c #DECEBD",
"I c #DECEC5",
"U c #DED2C5",
"Y c #F6E6D5",
"T c #F6EAD5",
"R c #F6EADE",
/* pixels */
"NNNNNNNNNNNNNNNNNNNNNNNNNNNNNNNNNNNNNNNNNNNNNNNNVVBBNNNNNNNNNNNNNNNNNNNNNNNNNNNNNNNNNNNNNNNNNNNN",
"NNNNNNNNNNNNNNNNNNNNNNNNNNNNNNNNNNNNNNNNNNNNNVNNVVVVBNNNNNNNNNNNNNNNNNNNNNNNNNNNNNNNNNNNNNNNNNNN",
"NNNNNNNNNNNNNNNNNNNNNNNNNNNNNNNNNNNNNNNNNNNNBVVBVVVVVNNVNNNNNNNNNNNNNNNNNNNNNNNNNNNNNNNNNNNNNNNN",
"NNNNNNNNNNNNNNNNNNNNNNNNNNNNNNNNNNNNNNNNNNNNBVVVCCCVVVVVBNNNNNNNNNNNNNNNNNNNNNXNNNNNNNNNNNNNNNNN",
"NNNNNNNNNNNNNNNNNNNNNNNNNNNNNNNNNNNNNNNNNNNVVVVCCCCCCVVVVNNXNNNNNNNNNNNNNNNNNXXNNNNNNNNNNNNNNNNN",
"NNNNNNNNNNNNNNNNNNNNNNNNNNNNNNNNNNNNNNNNNNNVVVVCCCCCbVVVBNNXNNNNNNNNNNNNNNNNNXXNXXXNNNNNNNNNNNNN",
"NNNNNNNNNNNNNNNNNNNNNNNNNNNNNNNNNNNNNNNNNBVVVVCZCCCCVbVVBNXNNNNNNNNNNNNNNNXNXXNXXXNNNNNNNNNNNNNN",
"NNNNNNNNNNNNNNNNNNNNNNNNNNNNNNNNNNNNNNNNNBVVVCCZAZZCCbbVNXXNNNNNNNNNNNNNNNXXXXNXXNNNNNNNNNNNNNNN",
"NNNNNNNNNNNNNNNNNNNNNNNNNNNNNNNNNNNNNNNNNVVVZZAAASZCCV#XNXXNNNNNNNNNNNNNNNNXXXXXXNNNNNNNNNNNNNNN",
"NNNNNNNNNNNNNNNNNNNNNNNNNNNNNNNNNNNNNNNNNVVCCZSAASACCVV#NXXNNNNNNNNNNNNNNNNNXXNXNNNNNNNNNNNNNNNN",
"NNNNNNNNNNNNNNNNNNNNNNNNNNNNNNNNNNNNNNNNNNVZSASSSSZCVVVXXXXNNNNNNNNNNNNNNNNNXXNXNNNNNNNNNNNNNNNN",
"NNNNNNNNNNNNNNNNNNNNNNNNNNNNNNNNNNNNNNNNNVVSSSSSSSAZVVVVXNNNNNNNNNNNNNNNNNNNNNNNNNNNNNNNNNNNNNNN",
"NNNNNNNNNNNNNNNNXNNNNNNNNNNNNNNNNNNNNNNBVCCCSSSSSZZCCCVVXNNNNNNNNNNNNNNNNNNNNNNNNNNNNNNNNNNNNNNN",
"NNNNNNNNNNNNNNNNXXNNNNNNNNNNNNNNNNNNNNVNVVCCZSDSSSZZCVVVVVNNNNNNNNNNNNNNNNNNNNNNNNNNNNNNNNNNNNNN",
"NNNNNNNNNNNNNNNNNXNNNNNNNNNNNNNNNNNNNVVVCCCASSKKSAZZVVVVVVNNNNNNNNNNNNNNNNNNNNNNNNNNNNNNNNNNNNNN",
"NNNNNNNNNNNNNNNNNNXNNXXNNNNNNNNNNNNNBVVVCZAASSKSSSZCCVVVVVNNNNNNNNNNNNNNNNNNNNNNNNNNNNNNNNNNNNNN",
"NNNNNNNNNNNNNNNNNNXXNXNNNNNNNNNNNNNNNVVVCCSSSSKKSSAAZVCVVVVNNNNNNNNNNNNNNNNNNNNNNNNNNNNNNNNNNNNN",
"NNNNNNNNNNNNNNNNNNNXNXXXNNNNNNNNNNNNNNBCCCASSSKKSSSZCCCCVVVNNNNNNNNNNNNNNNNNNNNNNNNNNNNNNNNNNNNN",
"NNNNNNNNNNNNNNNNNNNXXXXNNNNNNNNNNNNNNVVCCZASSKKKKSSZACCVVVBNNNNNNNNNNNNNNNNNNNNNNNNNNNNNNNNNNNNN",
"NNNNNNNNNNNNNNNNNNNXXXXNNNNNNNNNNNNNNNVCCZSSSKKKDSSSZCCCVVVVNNNNNNNNNNNNNNNNNNNNNNNNNNNNNNNNNNNN",
"NNNNNNNNNNNNNNNNNNNNNNNNNNNNNNNNNNNNNVVVCASSSKKKKSSSSCCCCVVVNNNNNNNNNNNNNNNNNNNNNNNNNNNNNNNNNNNN",
"NNNNNNNNNNNNNNNNNNNNNNNNNNNNNNNNNNNNNVVCCZSKKKKKKKSSCCCCVVVVNNNNNNNNNNNNNNNNNNNNNNNNNNNNNNNNNNNN",
"NNNNNNNNNNNNNNNNNNNNNNNNNNNNNNNXXNNNNVbVASSSKKKKKKSSAZCZCVVVVNNNNNNNNNNNNNNNNNNNNNNNNNNNNNNNNNNN",
"NNNNNNNNNNNNNNNNNNNNNNNNNNNNNNNNXXNNNXbVCSSSKKKKKKDSASSZCVVVBNNNNNNNNNNNNNNNNNNNNNNNNNNNNNNNNNNN",
"NNNNNNNNNNNNNXXNNNNNNNNNNNNNNNNNXXNNXVVVmASSKKKKKKKKSSZCCbVVVBNNNNNNNNNNNNNNNNNNNNNNNNNNNNNNNNNN",
"NNNNNNNNXXNNNXXNNNNNNNNNNNNNNNNNNXXNXBV#nASSSKKKKKKKDMAZCbbVVVNNXNNNNNNNNNNNNNNNNNNNNNNNNNNNNNNN",
"NNNNNNNNNXXNNXNNNNNNNNNNNNNNNNNNNXXNXNVbCCASKKKKKKKKSMmmCCbbVBNXXNNNNNNNNNNNNNNNNNNNNNNNNNNNNNNN",
"NNNNNNNNNNXXXXNXXNNNNNNNNNNNNNNNNNXXXNbVLIIIUUUUUUUUUUUPILLbCVXXNNNNNNNNNNNNNNNNNNNNNNNNNNNNNNNN",
"NNNNNNNNNNNXXNNXNNNNNNNNNNNNNNNNNNXXXXLLYYYYYYTTRRRRRRYYYYYLLVXXNNNNNNNNNNNNNNNNNNNNNNNNNNNNNNNN",
"NNNNNNNNNNNXXXXNNNNNNNNNNNNNNNNNNNNLLLYYYYYYYTTTRRRRTTTTYYYYYLLNNNNNNNNNNNNNNNNNNNNNNNNNNNNNNNNN",
"NNNNNNNNNNNNXXNNNNNNNNNNNNNNNNNNNNLYYYYYYYYYYYTTRRRRRTTTYYYYYYYLLNNNNNNNNNNNNNNNNNNNNNNNNNNNNNNN",
"NNNNNNNNNNNNNNNNNNNNNNNNNNNNNNNLLLYYYYYYYYYYYYYRRRRRRRTTYYYYYYYYYLNNNNNNNNNNNNNNNNNNNNNNNNNNNNNN",
"NNNNNNNNNNNNNNNNNNNNNNNNNNNNNNLYYYYYYYYYY$%=;upaaaaaaappuYYYYYYYYYLNNNNNNNNNNNNNNNNNNNNNNNNNNNNN",
"NNNNNNNNNNNNNNNNNNNNNNNNNNNNNLYYYYYYYY$$$$%==;aaaaaaaappuu=&YYYYYYYLNNNNNNNNNNNNNNNNNNNNNNNNNNNN",
"NNNNNNNNNNNNNNNNNNNNNNNNNNNNLYYYYYYYY$$$$$$=;puaaaaaaaaiu-==$%YYYYYYLNNNNNNNNNNNNNNNNNNNNNNNNNNN",
"NNNNNNNNNNNNNNNNNNNNNNNNNNNNLYYYYYYYY$$$$$$%&-ppaaaaaaiiu-&%$$YYYYYYLNNNNNNNNNNNNNNNNNNNNNNNNNNN",
"NNNNNNNNNNNNNNNNNNNNNNNNNNNNLYYYYYYY$$$$$$$%&p;uaaaaaaau-==%$$$YYYYYYLNNNNNNNNNNNNNNNNNNNNNNNNNN",
"NNNNNNNNNNNNNNNNNNNNNNNNNNNLYYYYYY$$$$$$$$%%%=-uaaaaaaaa--%$$$$$$YYYYLNNNNNNNNNNNNNNNNNNNNNNNNNN",
"NNNNNNNNNNNNNNNNNNNNNNNNNNNLYYYY$$$$$$$$$$%%&=-gzaaHaapap==$$$$$$$YYYYLNNNNNNNNNNNXNNNNNNNNNNNNN",
"NNNNNNNNNNNNNNNNNNNNNNNNNNLYYYY$$$$$$$$$$$$$wt&;zuvHaaau--&$$$$$$$YYYYLNNNXXXNNNNXNNNNNNNNNNNNNN",
"NNNNNNNNNNNNNNNNNNNNNNNNNNLYYYY$$$$$$$$4qoooOttghzziiuuds%%$$$$$$$YYYYLNNNNNXXNNNXNNNNNNNNNNNNNN",
"NNNNNNNNNNNNNNNNNNNNNNNNNNLYYY$$$$$$q0oo3roOrqgxzzGziGGd@O$$$$$$$$YYYYLNNNNNNXXNXNNNNNNNNNNNNNNN",
"NNNNNNNNNNNNNNNNNNNNNNNNNNLYYY$$$$$$$00773wwwtgzzzkzGGGddOro3$$$$$YYYYLNNNNNNXXNXXNNNNNNNNNNNNNN",
"NNNNNNNNNNNNNNNNNNNNNNNNNNLYYY$$$$$$oo3337wrwlzcGggzzjfgrrwq0$$$$$YYYYLNNNNNNNXXNXNNNNNNNNNNNNNN",
"NNNNNNNNNNNNNNNNNNNNNNNNNNLYYY$$$$$$oo3337wrglxcGggzzgffr0wq0$$$$$YYYYLNNNNNNNNNNNNNNNNNNNNNNNNN",
"NNNNNNNNNNNNNNNNNNNNNNXNNNLYYY$$$$$oorr037ttjlGxGfzgfzfgg0qwo$$$$$YYYYLNNNNNNNNNNNNNNNNNNNNNNNNN",
"NNNNNNNNNNNNNNNNNNNNNXXNN*JYYY$$444orr070w0dljlxllxgtfe5e000ro$$$$YYYJJ*NNNNNNNNNNNNNNNNNNNNNNNN",
"NNNNNNNNNNNNNXXNNNNNXXNNN*JYYY$$oo03r0072,77djtdlGldt7292700ooq$$YYYYJJ*NNNNNNNNNNNNNNNNNNNNNNNN",
"NNNNNNNNNNNNNNXXXNNXXNNNN*JJYYY$$$o30<2702wdFdllljyll22:2223qqqYYYYYJJJ*NNNNNNNNNNNNNNNNNNNNNNNN",
"NNNNNNNNNNNNNNNXXNNXNNNNN*JJYYYYYYo00,<0w27700zGltdr0dw+820q0wYYYYYYJJJ*NNNNNNNNNNNNNNNNNNNNNNNN",
"NNNNNNNNNNNNNNNNXXNXXNXNN*JJJYYYYYYrr2>932>>>r12Gjz7000>0300YYYYYYYJJJJ*NNNNNNNNNNNNNNNNNNNNNNNN",
"NNNNNNNNNNNNNNNNNXXXXNXNN*JJJJYYYYYYr00r0022276g2>27www223rYYYYYYJJJJJJ*NNNNNNNNNNNNNNNNNNNNNNNN",
"NNNNNNNNNNNNNNNNNNXXXXXNN*JJJJJYYYYYYYrwwwwwwwww88866668wwYYYYYJJJJJJJJ*NNNNNNNNNNNNNNNNNNNNNNNN",
"NNNNNNNNNNNNNNNNNNNXXXNNN*JJJJJYYYYYYYrwwwwwwwww88866668wwYYYYYJJJJJJJJ*NNNNNNNNNNNNNNNNNNNNNNNN",
"NNNNNNNNNNNNNNNNNNNNNNNNN*JJJJJJYYYYYYYYYYYYYYYYYYYYYYYYYYYYYYJJJJJJJJJ*NNNNNNNNNNNNNNNNNNNNNNNN",
"NNNNNNNNNNNNNNNNNNNNNNNNN*JJJJJJJJJYYYYYYYYYYYYYYYYYYYYYYYYYJJJJJJJJJJJ*NNNNNNNNNNNNNNNNNNNNNNNN",
"NNNNNNNNNNNNNNNNNNNNNNNN.*JJJJJJJJJJJYYYYYYYYYYYYYYYYYYYYYJJJJJJJJJJJJJ*NNNNNNNNNNNNNNNNNNNNNNNN",
"NNNNNNNNNNNNNNNNNNNNNNNN.*JJJJJJJJJJJJJYYYYYYYYYYYYYYYYYJJJJJJJJJJJJJJ*.NNNNNNNNNNNNNNNNNNNNNNNN",
"NNNNNNNNNNNNNNNNNNNNNNNN..*JJJJJJJJJJJJJJJJJJJJJJJJJJJJJJJJJJJJJJJJJJJ*.NNNNNNNNNNNNNNNNNNNNNNNN",
"NNNNNNNNNNNNNNNNNNNNNNNN...*JJJJJJJJJJJJJJJJJJJJJJJJJJJJJJJJJJJJJJJJJJ*.NNNNNNNNNNNNNNNNNNNNNNNN",
"NNNNNNNNNNNNNNNNNNNNNNNN...*JJJJJJJJJJJJJJJJJJJJJJJJJJJJJJJJJJJJJJJJJ*..NNNNNNNNNNNNNNNNNNNNNNNN",
"NNNNNNNNNNNNXNNNNXNNNNNN....*JJJJJJJJJJJJJJJJJJJJJJJJJJJJJJJJJJJJJJJ*. .NNNNNNNNNNNNNNNNNNNNNNNN",
"NNNNNNNNNNNNXXNNXXNNNNNNN...*JJJJJJJJJJJJJJJJJJJJJJJJJJJJJJJJJJJJJJJ*  NNNNNNNNNNNNNNNNNNNNNNNNN",
"NNNNNNNNNNNNXXNNXNNNNNNNN....*JJJJJJJJJJJJJJJJJJJJJJJJJJJJJJJJJJJJJ*.  NNNNNNNNNXXNNNNNXNNNNNNNN",
"NNNNNNNNNNNNNXXNXNNNNNNNNN....**JJJJJJJJJJJJJJJJJJJJJJJJJJJJJJJJJ**.   NNNNNNNNNXXXNNNXXNNNNNNNN",
"NNNNNNNNNNNNNXXNXNNNNNNNNNNN....**JJJJJJJJJJJJJJJJJJJJJJJJJJJJ***  .XXNNNNNNNNNNNXXXXXXNNNNNNNNN",
"NNNNNNNNNNNXNNXXXNNNNNNNNNNN......**JJJJJJJJJJJJJJJJJJJJJJJJJ*....  XNNNNNNNNNNNNNXNXXXNNNNNNNNN",
"NNNNNNNNNNNXXNXXXNNNNNNNNNNNNN......*************************...  XXXNNNNNNNNNNNNNNXNXXNNNNNNNNN",
"NNNNNNNNNNNNXXNXNNNNNNNNNNNNNNN............... .................NXXXXNNNNNNNNNNNNNNXXXXNNNNNNNNN",
"NNNNNNNNNNNNNXNXNNNNNNNNNNNXXNNXN............. ..............NNNNNNNNNNNNNNNNNNNNNNNXXXNNNNNNNNN",
"NNNNNNNNNNNNNNNXNNNNNNNNNNNNXXNXNNNN.......... ..........NNNNNNNNNNNNNNNNNNNNNNNNNNNXXXNNNNNNNNN",
"NNNNNNNNNNNNNNNNNNNNNNNNNNNNXXXXNNNNNNNN...... ........NNNNNNNNNNNNNNNNNNNNNNNNNNNNNNXNXNNNNNNNN",
"NNNNNNNNNNNNNNNNNNNNNNNNNNNNNXXXNNNNNNNNNNN..NXNNNNNNNNNNNNNNNNNNNNNNNNNNNNNNNNNNNNNNNNNNNNNNNNN",
"NNNNNNNNNNNNNNNNNNNNNNNNNNNNNXXNXNNNNNNNNNNNNNXXNNNNNNNNNNNNNNNNNNNNNNNNNNNNNNNNNNNNNNNNNNNNNNNN",
"NNNNNNNNNNNNNNNNNNNNNNNNNNNNNNNNXNNNNNNNNNNNNNNXNXNNNNNNNNNNNNNNNNNNNNNNNNNNNNNNNNNNNNNNNNNNNNNN",
"NNNNNNNNNNNNNNNNNNNNNNNNNNNNNNNNNNNNNNNNNXXXXXNXXXNNNNNNNNNNNNNNNNNNNNNNNNNNNNNNNNNNNNNNNNNNNNNN",
"NNNNNNNNNNNNNNNNNNNNNNNNNNNNNNNNNNNNNNNNNNNNNXXXXNNNNNNNNNNNNNNNNNNNNNNNNNNNNNNNNNNNNNNNNNNNNNNN",
"NNNNNNNNNNNNNNNNNNNNNNNNNNNNNNNNNNNNNNNNNNNNNNXXXNNNNNNNNNNNNNNNNNNNNNNNNNNNNNNNNNNNNNNNNNNNNNNN",
"NNNNNNNNNNNNNNNNNNNNNNNNNNNNNNNNNNNNNNNNNNNNNNNXNNNNNNNNNNNNNNNNNNNNNNNNNXNNNNNNNNNNNNNNNNNNNNNN",
"NNNNNNNNNNNNNNNNNNNNNNNNNNNNNNNNXNNNNNNNNNNNNNNNNNNNNNNNNNNNNNNNNNNNNNNNXXNNNNNNNNNNNNNNNNNNNNNN",
"NNNNNNNNNNNNNNNNNNNNNNNNNXXNNNNNXNNNNNNNNNNNNNNNNNNNNNNNNNNNNNNNNNNNNNNXXNNNNNNNNNNNNNNNNNNNNNNN",
"NNNNNNNNNNNNNNNNNNNNNNNNNXXXNNNXXNNNNNNNNNNNNNNNNNNNNNNNNNNNNNNNNNNXNNXXXNNNNNNNNNNNNNNNNNNNNNNN",
"NNNNNNNNNNNNNNNNNXXNNNNNNNXXNNNXNNNNNNNNNNNNNNNNNNNNNNNNNNNNNNNNNNNXXNXXXNNNNNNNNNNNNNNNNNNNNNNN",
"NNNNNNNNNXXXNNNNNXXNNNNNNNXXXNXXNXXNNNNNNNNNNNNNNNNNNNNNNNNNNNNXXXNNXXXXNNNNNNNNNNNNNNNNNNNNNNNN",
"NNNNNNNNNNNXXXNNXXNNNNNNNXNXXXXXXXNNNNNNNNNNNNNNNNNNNNNNNNNNNNNNNXXXXXXXNNNNNNNNNNNNNNNNNNNNNNNN",
"NNNNNNNNNNNNNXXXXNNNNNNNNXXNXXXXXNNNNNNNNNNNNNNNNNNNNNNNNNNNNNNNNNXXXXXXNNNNNNNNNNNNNNNNNNNNNNNN",
"NNNNNNNNNNNNNXXXXNNNNNNNNNXXXXXXNNNNNNNNNNNNNNNNNNNNNNNNNNNNNNNNNNNXXXXNNNNNNNNNNNNNNNNNNNNNNNNN",
"NNNNNNNNNNNNNXXXXNNNNNNNNNNXXXNXNNNNNNNNNNNNNNNNNNNNNNNNNNNNNNNNNNNXNNNNNNNNNNNNNNNNNNNNNNNNNNNN",
"NNNNNNNNNNNNNNNNNNNNNNNNNNNNXNNNNNNNNNNNNNNNNNNNNNNNNNNNNNNNNNNNNNNNNNNNNNNNNNNNNNNNNNNNNNNNNNNN",
"NNNNNNNNNNNNNNNNNNNNNNNNNNNNNNNNNNNNNNNNNNNNNNNNNNNNNNNNNNNNNNNNNNNNNNNNNNNNNNNNNNNNNNNNNNNNNNNN",
"NNNNNNNNNNNNNNNNNNNNNNNNNNNNNNNNNNNNNNNNNNNNNNNNNNNNNNNNNNNNNNNNNNNNNNNNNNNNNNNNNNNNNNNNNNNNNNNN",
"NNNNNNNNNNNNNNNNNNNNNNNNNNNNNNNNNNNNNNNNNNNNNNNNNNNNNNNNNNNNNNNNNNNNNNNNNNNNNNNNNNNNNNNNNNNNNNNN",
"NNNNNNNNNNNNNNNNNNNNNNNNNNNNNNNNNNNNNNNNNNNNNNNNNNNNNNNNNNNNNNNNNNNNNNNNNNNNNNNNNNNNNNNNNNNNNNNN",
"NNNNNNNNNNNNNNNNNNNNNNNNNNNNNNNNNNNNNNNNNNNNNNNNNNNNNNNNNNNNNNNNNNNNNNNNNNNNNNNNNNNNNNNNNNNNNNNN",
"NNNNNNNNNNNNNNNNNNNNNNNNNNNNNNNNNNNNNNNNNNNNNNNNNNNNNNNNNNNNNNNNNNNNNNNNNNNNNNNNNNNNNNNNNNNNNNNN",
"NNNNNNNNNNNNNNNNNNNNNNNNNNNNNNNNNNNNNNNNNNNNNNNNNNNNNNNNNNNNNNNNNNNNNNNNNNNNNNNNNNNNNNNNNNNNNNNN"
};
