/* XPM */
static char *_20f63e8819a4aded22949096b54ad9fm71eXWPYC7IIQKxo_1[] = {
/* columns rows colors chars-per-pixel */
"96 96 78 1 ",
"  c #313C18",
". c #414820",
"X c #6A7D39",
"o c #7B4C4A",
"O c #625D4A",
"+ c #6A5D4A",
"@ c #7B504A",
"# c #6A7D41",
"$ c #6A6552",
"% c #736552",
"& c #736952",
"* c #7B6D52",
"= c #73695A",
"- c #7B6D5A",
"; c #7B715A",
": c #7B7162",
"> c #8B4C4A",
", c #83554A",
"< c #8B504A",
"1 c #8B5552",
"2 c #835952",
"3 c #8B5D52",
"4 c #945D52",
"5 c #9C5952",
"6 c #8B6152",
"7 c #8B615A",
"8 c #8B695A",
"9 c #946152",
"0 c #94655A",
"q c #9C615A",
"w c #94695A",
"e c #9C6562",
"r c #946D62",
"t c #9C6962",
"y c #9C6D6A",
"u c #837162",
"i c #83796A",
"p c #8B7D6A",
"a c #9C7162",
"s c #9C756A",
"d c #9C796A",
"f c #A46D62",
"g c #A46D6A",
"h c #A4716A",
"j c #A4796A",
"k c #A47173",
"l c #AC7573",
"z c #A47D73",
"x c #AC7D73",
"c c #AC7D7B",
"v c #B47D73",
"b c #B47D7B",
"n c #738141",
"m c #7B854A",
"M c #7B894A",
"N c #7B8952",
"B c #8B954A",
"V c #94954A",
"C c #94994A",
"Z c #838952",
"A c #838D5A",
"S c #949D52",
"D c #9C9D52",
"F c #9C9D5A",
"G c #9CA15A",
"H c #A4A15A",
"J c #AC817B",
"K c #B4817B",
"L c #B49D7B",
"P c #A4A162",
"I c #A4AA62",
"U c #D5CEBD",
"Y c #DECEBD",
"T c #DECEC5",
"R c #DED2C5",
"E c #F6E6D5",
"W c #F6EAD5",
"Q c #F6EADE",
/* pixels */
"BBBBBBBBBBBBBBBBBBBBBBBBBBBBBBBBBBBBBBVCCCCVBBBBBBBBBBBBBBBBBBBBBBBBBBBBBBBBBBBBBBBBBBBBBBBBBBBB",
"BBBBBBBBBBBBBBBBBBBBBBBBBBBBBBBBBBBBBVCCCCCCCCBBBBBBBBBBBBBBBBBBBBBBBBBBBBBBBBBBBBBBBBBBBBBBBBBB",
"BBBBBBBBBBBBBBBBBBBBBBBBBBBBBBBBBBBBBCCCCCCCCCBBBBBBBBBBBBBBBBBBBBBBBBBBBBBBBBBBBBBBBBBBBBBBBBBB",
"BBBBBBBBBBBBBBBBBBBBBBBBBBBBBBBBBBBVCCCCCCCCCVBBBBBBBBBBBBBBBBBBBBBBBBBBBBBBBBXBBBBBBBBBBBBBBBBB",
"BBBBBBBBBBBBBBBBBBBBBBBBBBBBBBBBBBCCCCCCCCCCCCVBBBBBBBBBBBBXBBBBBBBBBBBBBBBBBXXBBBBBBBBBBBBBBBBB",
"BBBBBBBBBBBBBBBBBBBBBBBBBBBBBBBBBVCCCCSCSSCCCCCVBBBBXBBBBBBXBBBBBBBBBBBBBBBBBXXBXXXBBBBBBBBBBBBB",
"BBBBBBBBBBBBBBBBBBBBBBBBBBBBBBBBBCCCCCSSSSCCCCCBBBBBBXBBBBXBBBBBBBBBBBBBBBXBXXBXXXBBBBBBBBBBBBBB",
"BBBBBBBBBBBBBBBBBBBBBBBBBBBBBBBBBCCCSSSSSSSCCCCVBBBBBXXBBXXBBBBBBBBBBBBBBBXXXXBXXBBBBBBBBBBBBBBB",
"BBBBBBBBBBBBBBBBBBBBBBBBBBBBBBBBVCCCSSSSSSSCCCCCVBBBBBXXBXXBBBBBBBBBBBBBBBBXXXXXXBBBBBBBBBBBBBBB",
"BBBBBBBBBBBBBBBBBBBBBBBBBBBBBBBBBCSCSSDDSSSCSCCCVBBBBBBXBXXBBBBBBBBBBBBBBBBBXXBXBBBBBBBBBBBBBBBB",
"BBBBBBBBBBBBBBBBBBBBBBBBBBBBBBBBVCSSSDDDDSDSSCCCVVBBBBBXXXXBBBBBBBBBBBBBBBBBXXBXBBBBBBBBBBBBBBBB",
"BBBBBBBBBBBBBBBBBBBBBBBBBBBBBBBCVCSSDFFDDDSSSSCCCVBBBBBBXBBBBBBBBBBBBBBBBBBBBBBBBBBBBBBBBBBBBBBB",
"BBBBBBBBBBBBBBBBXBBBBBBBBBBBBBBCCCSSDFFFFDDSDSSCCCCBBBBBXBBBBBBBBBBBBBBBBBBBBBBBBBBBBBBBBBBBBBBB",
"BBBBBBBBBBBBBBBBXXBBBBBBBBBBBBBCCSSSDGGGFFDDDSSSSCCCVCBBBBBBBBBBBBBBBBBBBBBBBBBBBBBBBBBBBBBBBBBB",
"BBBBBBBBBBBBBBBBBXBBBBBBBBBBBBVCCSSSDFGGGGFDDSSSSCCCCCBBBBBBBBBBBBBBBBBBBBBBBBBBBBBBBBBBBBBBBBBB",
"BBBBBBBBBBBBBBBBBBXBBXXBBBBBBVCCSCSDDGGGGGGFDDDSSSCCCCBBBBBBBBBBBBBBBBBBBBBBBBBBBBBBBBBBBBBBBBBB",
"BBBBBBBBBBBBBBBBBBXXBXBBBBBBBVCCCSSDDFGGGGGGGGDDSSSCCCCCBBBBBBBBBBBBBBBBBBBBBBBBBBBBBBBBBBBBBBBB",
"BBBBBBBBBBBBBBBBBBBXBXXXBBBBBBCCCCSSSDFGGGGGGGDDSSSSCCCCBBBBBBBBBBBBBBBBBBBBBBBBBBBBBBBBBBBBBBBB",
"BBBBBBBBBBBBBBBBBBBXXXXBBBBBBBVCCCSSSDGGGGPGGGGFFDSSCCCVCBBBBBBBBBBBBBBBBBBBBBBBBBBBBBBBBBBBBBBB",
"BBBBBBBBBBBBBBBBBBBXXXXBBBBBBBBBCCSSSDFGPPPPGGGFGGDSSCCCCBBBBBBBBBBBBBBBBBBBBBBBBBBBBBBBBBBBBBBB",
"BBBBBBBBBBBBBBBBBBBBBBBBBBBBBBBBCCSSDDGGPPPPHGGGGGDDSSSCCBBBBBBBBBBBBBBBBBBBBBBBBBBBBBBBBBBBBBBB",
"BBBBBBBBBBBBBBBBBBBBBBBBBBBBBBBBCCCSSFGGGPPPPPGGGPDGDSCSCCBBBBBBBBBBBBBBBBBBBBBBBBBBBBBBBBBBBBBB",
"BBBBBBBBBBBBBBBBBBBBBBBBBBBBBBBX#CCSSSmGHGPPPPPPPGHGDSCSCCBBBBBBBBBBBBBBBBBBBBBBBBBBBBBBBBBBBBBB",
"BBBBBBBBBBBBBBBBBBBBBBBBBBBBBBBB#nCCSmMGGPPPPPPPPPPGDGGSSSVBBBBBBBBBBBBBBBBBBBBBBBBBBBBBBBBBBBBB",
"BBBBBBBBBBBBBXXBBBBBBBBBBBBBBBBBXXCCnCDGNGPPPPPPPPPGHGGFDnVCBBBBBBBBBBBBBBBBBBBBBBBBBBBBBBBBBBBB",
"BBBBBBBBXXBBBXXBBBBBBBBBBBBBBBBBVX#CnSDMNHGPPPPIPPPPPZGGGnXCBBBBXBBBBBBBBBBBBBBBBBBBBBBBBBBBBBBB",
"BBBBBBBBBXXBBXBBBBBBBBBBBBBBBBBBBXXCnCDnGGGPPPIIIIPPPAZZGS#XVBBXXBBBBBBBBBBBBBBBBBBBBBBBBBBBBBBB",
"BBBBBBBBBBXXXXBXXBBBBBBBBBBBBBBBBBXXnCnSTTRRRRRRRRRRRRRRYTUnCVXXBBBBBBBBBBBBBBBBBBBBBBBBBBBBBBBB",
"BBBBBBBBBBBXXBBXBBBBBBBBBBBBBBBBBBX#nnUYEEEWWWQQQQQQQWWWEEEUUBXXBBBBBBBBBBBBBBBBBBBBBBBBBBBBBBBB",
"BBBBBBBBBBBXXXXBBBBBBBBBBBBBBBBBBBBUUUEEEEEWWQQQQQQQQQWWEEEEEUUBBBBBBBBBBBBBBBBBBBBBBBBBBBBBBBBB",
"BBBBBBBBBBBBXXBBBBBBBBBBBBBBBBBBBBUEEEEEEEEEWWWQQQQQQWEEEEEEEEEUUBBBBBBBBBBBBBBBBBBBBBBBBBBBBBBB",
"BBBBBBBBBBBBBBBBBBBBBBBBBBBBBBBUUUEEEEEEEEEEWWWQQQQQQQWEEEEEEEEEEUBBBBBBBBBBBBBBBBBBBBBBBBBBBBBB",
"BBBBBBBBBBBBBBBBBBBBBBBBBBBBBBUEEEEEEEEEE=-::uuppppppiiu:EEEEEEEEEUBBBBBBBBBBBBBBBBBBBBBBBBBBBBB",
"BBBBBBBBBBBBBBBBBBBBBBBBBBBBBUEEEEEEEE$$%&=--uuipppppiuuu-=%EEEEEEEUBBBBBBBBBBBBBBBBBBBBBBBBBBBB",
"BBBBBBBBBBBBBBBBBBBBBBBBBBBBUEEEEEEEE$$$%=&=-u:ipppppii---=%$$EEEEEEUBBBBBBBBBBBBBBBBBBBBBBBBBBB",
"BBBBBBBBBBBBBBBBBBBBBBBBBBBBUEEEEEEEE$$$$%%&=:;:pppppui----$$$EEEEEEUBBBBBBBBBBBBBBBBBBBBBBBBBBB",
"BBBBBBBBBBBBBBBBBBBBBBBBBBBBUEEEEEEE$$$$$$%%&---uppppi;:-=%$$$$EEEEEEUBBBBBBBBBBBBBBBBBBBBBBBBBB",
"BBBBBBBBBBBBBBBBBBBBBBBBBBBUEEEEEE$$$$$$$$%%&=-uuppppiu:-=$$$$$$$EEEEUBBBBBBBBBBBBBBBBBBBBBBBBBB",
"BBBBBBBBBBBBBBBBBBBBBBBBBBBUEEEE$$$$$$$$$$$%&-uhzppbpui:-%$$$$$$$$EEEEUBBBBBBBBBBBXBBBBBBBBBBBBB",
"BBBBBBBBBBBBBBBBBBBBBBBBBBUEEEE$$$$$$$$$$$$$ta%=xubKpp:==&$$$$$$$$EEEEUBBBXXXBBBBXBBBBBBBBBBBBBB",
"BBBBBBBBBBBBBBBBBBBBBBBBBBUEEEE$$$$$$$$5qOO$%aghfxxuuu%ya$$$$$$$$$EEEEUBBBBBXXBBBXBBBBBBBBBBBBBB",
"BBBBBBBBBBBBBBBBBBBBBBBBBBUEEE$$$$$$q0OO4r++jtgxxxJxuzzt++$$$$$$$$EEEEUBBBBBBXXBXBBBBBBBBBBBBBBB",
"BBBBBBBBBBBBBBBBBBBBBBBBBBUEEE$$$$$$$00774wsattxxxlxxzzra+rO4$$$$$EEEEUBBBBBBXXBXXBBBBBBBBBBBBBB",
"BBBBBBBBBBBBBBBBBBBBBBBBBBUEEE$$$$$$OO4447raahxxJhhxkgeq00wq0$$$$$EEEEUBBBBBBBXXBXBBBBBBBBBBBBBB",
"BBBBBBBBBBBBBBBBBBBBBBBBBBUEEE$$$$$$OO4440sdsJcvJhhxlget00wq0$$$$$EEEEUBBBBBBBBBBBBBBBBBBBBBBBBB",
"BBBBBBBBBBBBBBBBBBBBBBXBBBUEEE$$$$$OOrr0477zzJJcJgxhghttt4qwO$$$$$EEEEUBBBBBBBBBBBBBBBBBBBBBBBBB",
"BBBBBBBBBBBBBBBBBBBBBXXBB*LEEE$$555Orr070w0sykzczzchtk0tq000rO$$$$EEELL*BBBBBBBBBBBBBBBBBBBBBBBB",
"BBBBBBBBBBBBBXXBBBBBXXBBB*LEEE$$OO04r0073<77rkt0zJzstkr43700OOq$$EEEELL*BBBBBBBBBBBBBBBBBBBBBBBB",
"BBBBBBBBBBBBBBXXXBBXXBBBB*LLEEE$$$O4013703ww00r4r3,7733>3334qqqEEEEELLL*BBBBBBBBBBBBBBBBBBBBBBBB",
"BBBBBBBBBBBBBBBXXBBXBBBBB*LLEEEEEEO00<10w377000w6o,73ww@830q0wEEEEEELLL*BBBBBBBBBBBBBBBBBBBBBBBB",
"BBBBBBBBBBBBBBBBXXBXXBXBB*LLLEEEEEErr3,943,,,22333q7000,0400EEEEEEELLLL*BBBBBBBBBBBBBBBBBBBBBBBB",
"BBBBBBBBBBBBBBBBBXXXXBXBB*LLLLEEEEEEr00r003337673,37www334rEEEEEELLLLLL*BBBBBBBBBBBBBBBBBBBBBBBB",
"BBBBBBBBBBBBBBBBBBXXXXXBB*LLLLLEEEEEEErwwwwwwwww88866668wwEEEEELLLLLLLL*BBBBBBBBBBBBBBBBBBBBBBBB",
"BBBBBBBBBBBBBBBBBBBXXXBBB*LLLLLEEEEEEErwwwwwwwww88866668wwEEEEELLLLLLLL*BBBBBBBBBBBBBBBBBBBBBBBB",
"BBBBBBBBBBBBBBBBBBBBBBBBB*LLLLLLEEEEEEEEEEEEEEEEEEEEEEEEEEEEEELLLLLLLLL*BBBBBBBBBBBBBBBBBBBBBBBB",
"BBBBBBBBBBBBBBBBBBBBBBBBB*LLLLLLLLLEEEEEEEEEEEEEEEEEEEEEEEEELLLLLLLLLLL*BBBBBBBBBBBBBBBBBBBBBBBB",
"BBBBBBBBBBBBBBBBBBBBBBBB.*LLLLLLLLLLLEEEEEEEEEEEEEEEEEEEEELLLLLLLLLLLLL*BBBBBBBBBBBBBBBBBBBBBBBB",
"BBBBBBBBBBBBBBBBBBBBBBBB.*LLLLLLLLLLLLLEEEEEEEEEEEEEEEEELLLLLLLLLLLLLL*.BBBBBBBBBBBBBBBBBBBBBBBB",
"BBBBBBBBBBBBBBBBBBBBBBBB..*LLLLLLLLLLLLLLLLLLLLLLLLLLLLLLLLLLLLLLLLLLL*.BBBBBBBBBBBBBBBBBBBBBBBB",
"BBBBBBBBBBBBBBBBBBBBBBBB...*LLLLLLLLLLLLLLLLLLLLLLLLLLLLLLLLLLLLLLLLLL*.BBBBBBBBBBBBBBBBBBBBBBBB",
"BBBBBBBBBBBBBBBBBBBBBBBB...*LLLLLLLLLLLLLLLLLLLLLLLLLLLLLLLLLLLLLLLLL*..BBBBBBBBBBBBBBBBBBBBBBBB",
"BBBBBBBBBBBBXBBBBXBBBBBB....*LLLLLLLLLLLLLLLLLLLLLLLLLLLLLLLLLLLLLLL*. .BBBBBBBBBBBBBBBBBBBBBBBB",
"BBBBBBBBBBBBXXBBXXBBBBBBB...*LLLLLLLLLLLLLLLLLLLLLLLLLLLLLLLLLLLLLLL*  BBBBBBBBBBBBBBBBBBBBBBBBB",
"BBBBBBBBBBBBXXBBXBBBBBBBB....*LLLLLLLLLLLLLLLLLLLLLLLLLLLLLLLLLLLLL*.  BBBBBBBBBXXBBBBBXBBBBBBBB",
"BBBBBBBBBBBBBXXBXBBBBBBBBB....**LLLLLLLLLLLLLLLLLLLLLLLLLLLLLLLLL**.   BBBBBBBBBXXXBBBXXBBBBBBBB",
"BBBBBBBBBBBBBXXBXBBBBBBBBBBB....**LLLLLLLLLLLLLLLLLLLLLLLLLLLL***  .XXBBBBBBBBBBBXXXXXXBBBBBBBBB",
"BBBBBBBBBBBXBBXXXBBBBBBBBBBB......**LLLLLLLLLLLLLLLLLLLLLLLLL*....  XBBBBBBBBBBBBBXBXXXBBBBBBBBB",
"BBBBBBBBBBBXXBXXXBBBBBBBBBBBBB......*************************...  XXXBBBBBBBBBBBBBBXBXXBBBBBBBBB",
"BBBBBBBBBBBBXXBXBBBBBBBBBBBBBBB............... .................BXXXXBBBBBBBBBBBBBBXXXXBBBBBBBBB",
"BBBBBBBBBBBBBXBXBBBBBBBBBBBXXBBXB............. ..............BBBBBBBBBBBBBBBBBBBBBBBXXXBBBBBBBBB",
"BBBBBBBBBBBBBBBXBBBBBBBBBBBBXXBXBBBB.......... ..........BBBBBBBBBBBBBBBBBBBBBBBBBBBXXXBBBBBBBBB",
"BBBBBBBBBBBBBBBBBBBBBBBBBBBBXXXXBBBBBBBB...... ........BBBBBBBBBBBBBBBBBBBBBBBBBBBBBBXBXBBBBBBBB",
"BBBBBBBBBBBBBBBBBBBBBBBBBBBBBXXXBBBBBBBBBBB..BXBBBBBBBBBBBBBBBBBBBBBBBBBBBBBBBBBBBBBBBBBBBBBBBBB",
"BBBBBBBBBBBBBBBBBBBBBBBBBBBBBXXBXBBBBBBBBBBBBBXXBBBBBBBBBBBBBBBBBBBBBBBBBBBBBBBBBBBBBBBBBBBBBBBB",
"BBBBBBBBBBBBBBBBBBBBBBBBBBBBBBBBXBBBBBBBBBBBBBBXBXBBBBBBBBBBBBBBBBBBBBBBBBBBBBBBBBBBBBBBBBBBBBBB",
"BBBBBBBBBBBBBBBBBBBBBBBBBBBBBBBBBBBBBBBBBXXXXXBXXXBBBBBBBBBBBBBBBBBBBBBBBBBBBBBBBBBBBBBBBBBBBBBB",
"BBBBBBBBBBBBBBBBBBBBBBBBBBBBBBBBBBBBBBBBBBBBBXXXXBBBBBBBBBBBBBBBBBBBBBBBBBBBBBBBBBBBBBBBBBBBBBBB",
"BBBBBBBBBBBBBBBBBBBBBBBBBBBBBBBBBBBBBBBBBBBBBBXXXBBBBBBBBBBBBBBBBBBBBBBBBBBBBBBBBBBBBBBBBBBBBBBB",
"BBBBBBBBBBBBBBBBBBBBBBBBBBBBBBBBBBBBBBBBBBBBBBBXBBBBBBBBBBBBBBBBBBBBBBBBBXBBBBBBBBBBBBBBBBBBBBBB",
"BBBBBBBBBBBBBBBBBBBBBBBBBBBBBBBBXBBBBBBBBBBBBBBBBBBBBBBBBBBBBBBBBBBBBBBBXXBBBBBBBBBBBBBBBBBBBBBB",
"BBBBBBBBBBBBBBBBBBBBBBBBBXXBBBBBXBBBBBBBBBBBBBBBBBBBBBBBBBBBBBBBBBBBBBBXXBBBBBBBBBBBBBBBBBBBBBBB",
"BBBBBBBBBBBBBBBBBBBBBBBBBXXXBBBXXBBBBBBBBBBBBBBBBBBBBBBBBBBBBBBBBBBXBBXXXBBBBBBBBBBBBBBBBBBBBBBB",
"BBBBBBBBBBBBBBBBBXXBBBBBBBXXBBBXBBBBBBBBBBBBBBBBBBBBBBBBBBBBBBBBBBBXXBXXXBBBBBBBBBBBBBBBBBBBBBBB",
"BBBBBBBBBXXXBBBBBXXBBBBBBBXXXBXXBXXBBBBBBBBBBBBBBBBBBBBBBBBBBBBXXXBBXXXXBBBBBBBBBBBBBBBBBBBBBBBB",
"BBBBBBBBBBBXXXBBXXBBBBBBBXBXXXXXXXBBBBBBBBBBBBBBBBBBBBBBBBBBBBBBBXXXXXXXBBBBBBBBBBBBBBBBBBBBBBBB",
"BBBBBBBBBBBBBXXXXBBBBBBBBXXBXXXXXBBBBBBBBBBBBBBBBBBBBBBBBBBBBBBBBBXXXXXXBBBBBBBBBBBBBBBBBBBBBBBB",
"BBBBBBBBBBBBBXXXXBBBBBBBBBXXXXXXBBBBBBBBBBBBBBBBBBBBBBBBBBBBBBBBBBBXXXXBBBBBBBBBBBBBBBBBBBBBBBBB",
"BBBBBBBBBBBBBXXXXBBBBBBBBBBXXXBXBBBBBBBBBBBBBBBBBBBBBBBBBBBBBBBBBBBXBBBBBBBBBBBBBBBBBBBBBBBBBBBB",
"BBBBBBBBBBBBBBBBBBBBBBBBBBBBXBBBBBBBBBBBBBBBBBBBBBBBBBBBBBBBBBBBBBBBBBBBBBBBBBBBBBBBBBBBBBBBBBBB",
"BBBBBBBBBBBBBBBBBBBBBBBBBBBBBBBBBBBBBBBBBBBBBBBBBBBBBBBBBBBBBBBBBBBBBBBBBBBBBBBBBBBBBBBBBBBBBBBB",
"BBBBBBBBBBBBBBBBBBBBBBBBBBBBBBBBBBBBBBBBBBBBBBBBBBBBBBBBBBBBBBBBBBBBBBBBBBBBBBBBBBBBBBBBBBBBBBBB",
"BBBBBBBBBBBBBBBBBBBBBBBBBBBBBBBBBBBBBBBBBBBBBBBBBBBBBBBBBBBBBBBBBBBBBBBBBBBBBBBBBBBBBBBBBBBBBBBB",
"BBBBBBBBBBBBBBBBBBBBBBBBBBBBBBBBBBBBBBBBBBBBBBBBBBBBBBBBBBBBBBBBBBBBBBBBBBBBBBBBBBBBBBBBBBBBBBBB",
"BBBBBBBBBBBBBBBBBBBBBBBBBBBBBBBBBBBBBBBBBBBBBBBBBBBBBBBBBBBBBBBBBBBBBBBBBBBBBBBBBBBBBBBBBBBBBBBB",
"BBBBBBBBBBBBBBBBBBBBBBBBBBBBBBBBBBBBBBBBBBBBBBBBBBBBBBBBBBBBBBBBBBBBBBBBBBBBBBBBBBBBBBBBBBBBBBBB",
"BBBBBBBBBBBBBBBBBBBBBBBBBBBBBBBBBBBBBBBBBBBBBBBBBBBBBBBBBBBBBBBBBBBBBBBBBBBBBBBBBBBBBBBBBBBBBBBB"
};
