/* XPM */
static char *_20f63e8819a4aded22949096b54ad9fm71eXWPYC7IIQKxo_2[] = {
/* columns rows colors chars-per-pixel */
"96 96 74 1 ",
"  c #313C18",
". c #414820",
"X c #6A7D39",
"o c #7B4C4A",
"O c #625D4A",
"+ c #6A5D4A",
"@ c #7B504A",
"# c #6A7D41",
"$ c #6A6552",
"% c #736552",
"& c #736952",
"* c #7B6D52",
"= c #736D5A",
"- c #7B695A",
"; c #7B715A",
": c #7B7162",
"> c #8B4C4A",
", c #83504A",
"< c #8B504A",
"1 c #8B5552",
"2 c #8B5D52",
"3 c #945952",
"4 c #9C5952",
"5 c #945D5A",
"6 c #8B6152",
"7 c #8B615A",
"8 c #8B695A",
"9 c #946152",
"0 c #94655A",
"q c #9C615A",
"w c #94695A",
"e c #9C6562",
"r c #946D62",
"t c #9C6D62",
"y c #837562",
"u c #83756A",
"i c #83796A",
"p c #8B796A",
"a c #9C7162",
"s c #9C756A",
"d c #9C796A",
"f c #A46962",
"g c #A46D6A",
"h c #A4756A",
"j c #A4796A",
"k c #A47573",
"l c #AC7573",
"z c #A47973",
"x c #AC7D73",
"c c #A47D7B",
"v c #AC7D7B",
"b c #B47973",
"n c #738141",
"m c #73854A",
"M c #7B894A",
"N c #7B8952",
"B c #8B954A",
"V c #94954A",
"C c #94994A",
"Z c #949952",
"A c #9C9D52",
"S c #9C9D5A",
"D c #9CA15A",
"F c #A4A15A",
"G c #AC817B",
"H c #B49D7B",
"J c #A4A562",
"K c #D5CEBD",
"L c #DECEBD",
"P c #DECEC5",
"I c #DED2C5",
"U c #F6E6D5",
"Y c #F6EAD5",
"T c #F6EADE",
/* pixels */
"BBBBBBBBBBBBBBBBBBBBBBBBBBBBBBBBBBBBBBBBBBBBBBBBBBBBBBBBBBBBBBBBBBBBBBBBBBBBBBBBBBBBBBBBBBBBBBBB",
"BBBBBBBBBBBBBBBBBBBBBBBBBBBBBBBBBBBBBBBBBBBBBBBBBBBBBBBBBBBBBBBBBBBBBBBBBBBBBBBBBBBBBBBBBBBBBBBB",
"BBBBBBBBBBBBBBBBBBBBBBBBBBBBBBBBBBBBBBBBBBBBBBBBBBBBBBBBBBBBBBBBBBBBBBBBBBBBBBBBBBBBBBBBBBBBBBBB",
"BBBBBBBBBBBBBBBBBBBBBBBBBBBBBBBBBBBBBBBBBBBBBBBBBBBBBBBBBBBBBBBBBBBBBBBBBBBBBBXBBBBBBBBBBBBBBBBB",
"BBBBBBBBBBBBBBBBBBBBBBBBBBBBBBBBBBBBBBBBBBBBBBBBBBBBBBBBBBBXBBBBBBBBBBBBBBBBBXXBBBBBBBBBBBBBBBBB",
"BBBBBBBBBBBBBBBBBBBBBBBBBBBBBBBBBBBBBBBBBBBBBBBBBBBBXBBBBBBXBBBBBBBBBBBBBBBBBXXBXXXBBBBBBBBBBBBB",
"BBBBBBBBBBBBBBBBBBBBBBBBBBBBBBBBBBBBBBBBBBBBBBBBBBBBBXBBBBXBBBBBBBBBBBBBBBXBXXBXXXBBBBBBBBBBBBBB",
"BBBBBBBBBBBBBBBBBBBBBBBBBBBBBBBBBBBBBBBBBBBBBBBBBBBBBXXBBXXBBBBBBBBBBBBBBBXXXXBXXBBBBBBBBBBBBBBB",
"BBBBBBBBBBBBBBBBBBBBBBBBBBBBBBBBBBBBBBBBBBBBBBBBBBBBBBXXBXXBBBBBBBBBBBBBBBBXXXXXXBBBBBBBBBBBBBBB",
"BBBBBBBBBBBBBBBBBBBBBBBBBBBBBBBBBBBBBBBBBBBBBBBBBBBBBBBXBXXBBBBBBBBBBBBBBBBBXXBXBBBBBBBBBBBBBBBB",
"BBBBBBBBBBBBBBBBBBBBBBBBBBBBBBBBBBBBVBCVBBBCBBBVBBBBBBBXXXXBBBBBBBBBBBBBBBBBXXBXBBBBBBBBBBBBBBBB",
"BBBBBBBBBBBBBBBBBBBBBBBBBBBBBBBBBBVCCCCCCCCCCCCCCCBVBBBBXBBBBBBBBBBBBBBBBBBBBBBBBBBBBBBBBBBBBBBB",
"BBBBBBBBBBBBBBBBXBBBBBBBBBBBBBBCVCCCCCCCCCCCCCCCCCCCBBBBXBBBBBBBBBBBBBBBBBBBBBBBBBBBBBBBBBBBBBBB",
"BBBBBBBBBBBBBBBBXXBBBBBBBBBBBBBCCCCCCCCCZCCZCCCCCCCCCBBBBBBBBBBBBBBBBBBBBBBBBBBBBBBBBBBBBBBBBBBB",
"BBBBBBBBBBBBBBBBBXBBBBBBBBBBBBCCCZZZSZZZZZZAAZZZZZCCCCVBBBBBBBBBBBBBBBBBBBBBBBBBBBBBBBBBBBBBBBBB",
"BBBBBBBBBBBBBBBBBBXBBXXBBBBBCCCZZCZADAZZASZSAAZZZCCCCCCBBBBBBBBBBBBBBBBBBBBBBBBBBBBBBBBBBBBBBBBB",
"BBBBBBBBBBBBBBBBBBXXBXBBBBBBVBCCZZZADDDDDJSDASAAAZCCCCCCBBBBBBBBBBBBBBBBBBBBBBBBBBBBBBBBBBBBBBBB",
"BBBBBBBBBBBBBBBBBBBXBXXXBBBBBBCCZZZZDDDDDJDJDSAAAAZZZCCCVBBBBBBBBBBBBBBBBBBBBBBBBBBBBBBBBBBBBBBB",
"BBBBBBBBBBBBBBBBBBBXXXXBBBBBBBCCCZZZZDDJJJJJDDDDDAAZZCCCCVBBBBBBBBBBBBBBBBBBBBBBBBBBBBBBBBBBBBBB",
"BBBBBBBBBBBBBBBBBBBXXXXBBBBBBBCVCZZZSADJJJJJJJFDDSAAZZCCCCBBBBBBBBBBBBBBBBBBBBBBBBBBBBBBBBBBBBBB",
"BBBBBBBBBBBBBBBBBBBBBBBBBBBBBBBBCCCZZZADJJJJJJJJDDDSAZCCCCBBBBBBBBBBBBBBBBBBBBBBBBBBBBBBBBBBBBBB",
"BBBBBBBBBBBBBBBBBBBBBBBBBBBBBBBBBCCCZZASDJDDJJJJJJJDSZCCCCBBBBBBBBBBBBBBBBBBBBBBBBBBBBBBBBBBBBBB",
"BBBBBBBBBBBBBBBBBBBBBBBBBBBBBBBXXBBCCZnAAADDDJJJJJJDDAZCCCBBBBBBBBBBBBBBBBBBBBBBBBBBBBBBBBBBBBBB",
"BBBBBBBBBBBBBBBBBBBBBBBBBBBBBBBBXXCVCXnZZASDDJJJJJJJDAZZCCBBBBBBBBBBBBBBBBBBBBBBBBBBBBBBBBBBBBBB",
"BBBBBBBBBBBBBXXBBBBBBBBBBBBBBBBBXXBBXCCZnCZDDDJJJJJJDSACC#CBBBBBBBBBBBBBBBBBBBBBBBBBBBBBBBBBBBBB",
"BBBBBBBBXXBBBXXBBBBBBBBBBBBBBBBBBXXBXBV#nCZADJJJJJJJDNAZCnnBBBBBXBBBBBBBBBBBBBBBBBBBBBBBBBBBBBBB",
"BBBBBBBBBXXBBXBBBBBBBBBBBBBBBBBBBXXBXBB#CZZZDDJJJJJDJMmnCC#XBBBXXBBBBBBBBBBBBBBBBBBBBBBBBBBBBBBB",
"BBBBBBBBBBXXXXBXXBBBBBBBBBBBBBBBBBXXXBXCKKKLPIIIIIIIIPPKKKKXBBXXBBBBBBBBBBBBBBBBBBBBBBBBBBBBBBBB",
"BBBBBBBBBBBXXBBXBBBBBBBBBBBBBBBBBBXXXXKKUUUUUUUYYYYUUUUUUUUKKBXXBBBBBBBBBBBBBBBBBBBBBBBBBBBBBBBB",
"BBBBBBBBBBBXXXXBBBBBBBBBBBBBBBBBBBBKKKUUUUUUUUUUYYTYUUUUUUUUUKKBBBBBBBBBBBBBBBBBBBBBBBBBBBBBBBBB",
"BBBBBBBBBBBBXXBBBBBBBBBBBBBBBBBBBBKUUUUUUUUUUUUYYYYUUUUUUUUUUUUKKBBBBBBBBBBBBBBBBBBBBBBBBBBBBBBB",
"BBBBBBBBBBBBBBBBBBBBBBBBBBBBBBBKKKUUUUUUUUUUUUUYYYYYUUUUUUUUUUUUUKBBBBBBBBBBBBBBBBBBBBBBBBBBBBBB",
"BBBBBBBBBBBBBBBBBBBBBBBBBBBBBBKUUUUUUUUUU$$%&=;yuiiy-==$%UUUUUUUUUKBBBBBBBBBBBBBBBBBBBBBBBBBBBBB",
"BBBBBBBBBBBBBBBBBBBBBBBBBBBBBKUUUUUUUU$$$$$%%--yiiu::=&$$$$$UUUUUUUKBBBBBBBBBBBBBBBBBBBBBBBBBBBB",
"BBBBBBBBBBBBBBBBBBBBBBBBBBBBKUUUUUUUU$$$$$$$%&-:uyy--%%$$$$$$$UUUUUUKBBBBBBBBBBBBBBBBBBBBBBBBBBB",
"BBBBBBBBBBBBBBBBBBBBBBBBBBBBKUUUUUUUU$$$$$$$%=-iiy-:-$$$$$$$$$UUUUUUKBBBBBBBBBBBBBBBBBBBBBBBBBBB",
"BBBBBBBBBBBBBBBBBBBBBBBBBBBBKUUUUUUU$$$$$$$$=-yipy--&=$$$$$$$$$UUUUUUKBBBBBBBBBBBBBBBBBBBBBBBBBB",
"BBBBBBBBBBBBBBBBBBBBBBBBBBBKUUUUUU$$$$$$$$$$=-:ipp:;$$$$$$$$$$$$$UUUUKBBBBBBBBBBBBBBBBBBBBBBBBBB",
"BBBBBBBBBBBBBBBBBBBBBBBBBBBKUUUU$$$$$$$$$$====pxGpyf$$$$$$$$$$$$$$UUUUKBBBBBBBBBBBXBBBBBBBBBBBBB",
"BBBBBBBBBBBBBBBBBBBBBBBBBBKUUUU$$$$$$$$$$$$-tjyuGuxl$$$$$$$$$$$$$$UUUUKBBBXXXBBBBXBBBBBBBBBBBBBB",
"BBBBBBBBBBBBBBBBBBBBBBBBBBKUUUU$$$$$$$$4qO++-jxxlxxyOOOrr$$$$$$$$$UUUUKBBBBBXXBBBXBBBBBBBBBBBBBB",
"BBBBBBBBBBBBBBBBBBBBBBBBBBKUUU$$$$$$q0OO3rO$jtxGxxGh-trrOO$$$$$$$$UUUUKBBBBBBXXBXBBBBBBBBBBBBBBB",
"BBBBBBBBBBBBBBBBBBBBBBBBBBKUUU$$$$$$$00773wwdzzxxxlhhksrrOrO3$$$$$UUUUKBBBBBBXXBXXBBBBBBBBBBBBBB",
"BBBBBBBBBBBBBBBBBBBBBBBBBBKUUU$$$$$$OO3337ww0zvbGhhhxg5000wq0$$$$$UUUUKBBBBBBBXXBXBBBBBBBBBBBBBB",
"BBBBBBBBBBBBBBBBBBBBBBBBBBKUUU$$$$$$OO3337waahvbGhhxxhe500wq0$$$$$UUUUKBBBBBBBBBBBBBBBBBBBBBBBBB",
"BBBBBBBBBBBBBBBBBBBBBBXBBBKUUU$$$$$OOrr0377stzGGGgxhghttt3qwO$$$$$UUUUKBBBBBBBBBBBBBBBBBBBBBBBBB",
"BBBBBBBBBBBBBBBBBBBBBXXBB*HUUU$$444Orr070wtsvszczzvhtt25q000rO$$$$UUUHH*BBBBBBBBBBBBBBBBBBBBBBBB",
"BBBBBBBBBBBBBXXBBBBBXXBBB*HUUU$$OO03r0072<70tzethGksts732700OOq$$UUUUHH*BBBBBBBBBBBBBBBBBBBBBBBB",
"BBBBBBBBBBBBBBXXXBBXXBBBB*HHUUU$$$O3012702wwrthhtsstt72>2223qqqUUUUUHHH*BBBBBBBBBBBBBBBBBBBBBBBB",
"BBBBBBBBBBBBBBBXXBBXBBBBB*HHUUUUUUO00<10w2770tstro,r2ww@820q0wUUUUUUHHH*BBBBBBBBBBBBBBBBBBBBBBBB",
"BBBBBBBBBBBBBBBBXXBXXBXBB*HHHUUUUUUrr2,932,,,77222q7000,0300UUUUUUUHHHH*BBBBBBBBBBBBBBBBBBBBBBBB",
"BBBBBBBBBBBBBBBBBXXXXBXBB*HHHHUUUUUUr00r002227672,27www223rUUUUUUHHHHHH*BBBBBBBBBBBBBBBBBBBBBBBB",
"BBBBBBBBBBBBBBBBBBXXXXXBB*HHHHHUUUUUUUrwwwwwwwww88866668wwUUUUUHHHHHHHH*BBBBBBBBBBBBBBBBBBBBBBBB",
"BBBBBBBBBBBBBBBBBBBXXXBBB*HHHHHUUUUUUUrwwwwwwwww88866668wwUUUUUHHHHHHHH*BBBBBBBBBBBBBBBBBBBBBBBB",
"BBBBBBBBBBBBBBBBBBBBBBBBB*HHHHHHUUUUUUUUUUUUUUUUUUUUUUUUUUUUUUHHHHHHHHH*BBBBBBBBBBBBBBBBBBBBBBBB",
"BBBBBBBBBBBBBBBBBBBBBBBBB*HHHHHHHHHUUUUUUUUUUUUUUUUUUUUUUUUUHHHHHHHHHHH*BBBBBBBBBBBBBBBBBBBBBBBB",
"BBBBBBBBBBBBBBBBBBBBBBBB.*HHHHHHHHHHHUUUUUUUUUUUUUUUUUUUUUHHHHHHHHHHHHH*BBBBBBBBBBBBBBBBBBBBBBBB",
"BBBBBBBBBBBBBBBBBBBBBBBB.*HHHHHHHHHHHHHUUUUUUUUUUUUUUUUUHHHHHHHHHHHHHH*.BBBBBBBBBBBBBBBBBBBBBBBB",
"BBBBBBBBBBBBBBBBBBBBBBBB..*HHHHHHHHHHHHHHHHHHHHHHHHHHHHHHHHHHHHHHHHHHH*.BBBBBBBBBBBBBBBBBBBBBBBB",
"BBBBBBBBBBBBBBBBBBBBBBBB...*HHHHHHHHHHHHHHHHHHHHHHHHHHHHHHHHHHHHHHHHHH*.BBBBBBBBBBBBBBBBBBBBBBBB",
"BBBBBBBBBBBBBBBBBBBBBBBB...*HHHHHHHHHHHHHHHHHHHHHHHHHHHHHHHHHHHHHHHHH*..BBBBBBBBBBBBBBBBBBBBBBBB",
"BBBBBBBBBBBBXBBBBXBBBBBB....*HHHHHHHHHHHHHHHHHHHHHHHHHHHHHHHHHHHHHHH*. .BBBBBBBBBBBBBBBBBBBBBBBB",
"BBBBBBBBBBBBXXBBXXBBBBBBB...*HHHHHHHHHHHHHHHHHHHHHHHHHHHHHHHHHHHHHHH*  BBBBBBBBBBBBBBBBBBBBBBBBB",
"BBBBBBBBBBBBXXBBXBBBBBBBB....*HHHHHHHHHHHHHHHHHHHHHHHHHHHHHHHHHHHHH*.  BBBBBBBBBXXBBBBBXBBBBBBBB",
"BBBBBBBBBBBBBXXBXBBBBBBBBB....**HHHHHHHHHHHHHHHHHHHHHHHHHHHHHHHHH**.   BBBBBBBBBXXXBBBXXBBBBBBBB",
"BBBBBBBBBBBBBXXBXBBBBBBBBBBB....**HHHHHHHHHHHHHHHHHHHHHHHHHHHH***  .XXBBBBBBBBBBBXXXXXXBBBBBBBBB",
"BBBBBBBBBBBXBBXXXBBBBBBBBBBB......**HHHHHHHHHHHHHHHHHHHHHHHHH*....  XBBBBBBBBBBBBBXBXXXBBBBBBBBB",
"BBBBBBBBBBBXXBXXXBBBBBBBBBBBBB......*************************...  XXXBBBBBBBBBBBBBBXBXXBBBBBBBBB",
"BBBBBBBBBBBBXXBXBBBBBBBBBBBBBBB............... .................BXXXXBBBBBBBBBBBBBBXXXXBBBBBBBBB",
"BBBBBBBBBBBBBXBXBBBBBBBBBBBXXBBXB............. ..............BBBBBBBBBBBBBBBBBBBBBBBXXXBBBBBBBBB",
"BBBBBBBBBBBBBBBXBBBBBBBBBBBBXXBXBBBB.......... ..........BBBBBBBBBBBBBBBBBBBBBBBBBBBXXXBBBBBBBBB",
"BBBBBBBBBBBBBBBBBBBBBBBBBBBBXXXXBBBBBBBB...... ........BBBBBBBBBBBBBBBBBBBBBBBBBBBBBBXBXBBBBBBBB",
"BBBBBBBBBBBBBBBBBBBBBBBBBBBBBXXXBBBBBBBBBBB..BXBBBBBBBBBBBBBBBBBBBBBBBBBBBBBBBBBBBBBBBBBBBBBBBBB",
"BBBBBBBBBBBBBBBBBBBBBBBBBBBBBXXBXBBBBBBBBBBBBBXXBBBBBBBBBBBBBBBBBBBBBBBBBBBBBBBBBBBBBBBBBBBBBBBB",
"BBBBBBBBBBBBBBBBBBBBBBBBBBBBBBBBXBBBBBBBBBBBBBBXBXBBBBBBBBBBBBBBBBBBBBBBBBBBBBBBBBBBBBBBBBBBBBBB",
"BBBBBBBBBBBBBBBBBBBBBBBBBBBBBBBBBBBBBBBBBXXXXXBXXXBBBBBBBBBBBBBBBBBBBBBBBBBBBBBBBBBBBBBBBBBBBBBB",
"BBBBBBBBBBBBBBBBBBBBBBBBBBBBBBBBBBBBBBBBBBBBBXXXXBBBBBBBBBBBBBBBBBBBBBBBBBBBBBBBBBBBBBBBBBBBBBBB",
"BBBBBBBBBBBBBBBBBBBBBBBBBBBBBBBBBBBBBBBBBBBBBBXXXBBBBBBBBBBBBBBBBBBBBBBBBBBBBBBBBBBBBBBBBBBBBBBB",
"BBBBBBBBBBBBBBBBBBBBBBBBBBBBBBBBBBBBBBBBBBBBBBBXBBBBBBBBBBBBBBBBBBBBBBBBBXBBBBBBBBBBBBBBBBBBBBBB",
"BBBBBBBBBBBBBBBBBBBBBBBBBBBBBBBBXBBBBBBBBBBBBBBBBBBBBBBBBBBBBBBBBBBBBBBBXXBBBBBBBBBBBBBBBBBBBBBB",
"BBBBBBBBBBBBBBBBBBBBBBBBBXXBBBBBXBBBBBBBBBBBBBBBBBBBBBBBBBBBBBBBBBBBBBBXXBBBBBBBBBBBBBBBBBBBBBBB",
"BBBBBBBBBBBBBBBBBBBBBBBBBXXXBBBXXBBBBBBBBBBBBBBBBBBBBBBBBBBBBBBBBBBXBBXXXBBBBBBBBBBBBBBBBBBBBBBB",
"BBBBBBBBBBBBBBBBBXXBBBBBBBXXBBBXBBBBBBBBBBBBBBBBBBBBBBBBBBBBBBBBBBBXXBXXXBBBBBBBBBBBBBBBBBBBBBBB",
"BBBBBBBBBXXXBBBBBXXBBBBBBBXXXBXXBXXBBBBBBBBBBBBBBBBBBBBBBBBBBBBXXXBBXXXXBBBBBBBBBBBBBBBBBBBBBBBB",
"BBBBBBBBBBBXXXBBXXBBBBBBBXBXXXXXXXBBBBBBBBBBBBBBBBBBBBBBBBBBBBBBBXXXXXXXBBBBBBBBBBBBBBBBBBBBBBBB",
"BBBBBBBBBBBBBXXXXBBBBBBBBXXBXXXXXBBBBBBBBBBBBBBBBBBBBBBBBBBBBBBBBBXXXXXXBBBBBBBBBBBBBBBBBBBBBBBB",
"BBBBBBBBBBBBBXXXXBBBBBBBBBXXXXXXBBBBBBBBBBBBBBBBBBBBBBBBBBBBBBBBBBBXXXXBBBBBBBBBBBBBBBBBBBBBBBBB",
"BBBBBBBBBBBBBXXXXBBBBBBBBBBXXXBXBBBBBBBBBBBBBBBBBBBBBBBBBBBBBBBBBBBXBBBBBBBBBBBBBBBBBBBBBBBBBBBB",
"BBBBBBBBBBBBBBBBBBBBBBBBBBBBXBBBBBBBBBBBBBBBBBBBBBBBBBBBBBBBBBBBBBBBBBBBBBBBBBBBBBBBBBBBBBBBBBBB",
"BBBBBBBBBBBBBBBBBBBBBBBBBBBBBBBBBBBBBBBBBBBBBBBBBBBBBBBBBBBBBBBBBBBBBBBBBBBBBBBBBBBBBBBBBBBBBBBB",
"BBBBBBBBBBBBBBBBBBBBBBBBBBBBBBBBBBBBBBBBBBBBBBBBBBBBBBBBBBBBBBBBBBBBBBBBBBBBBBBBBBBBBBBBBBBBBBBB",
"BBBBBBBBBBBBBBBBBBBBBBBBBBBBBBBBBBBBBBBBBBBBBBBBBBBBBBBBBBBBBBBBBBBBBBBBBBBBBBBBBBBBBBBBBBBBBBBB",
"BBBBBBBBBBBBBBBBBBBBBBBBBBBBBBBBBBBBBBBBBBBBBBBBBBBBBBBBBBBBBBBBBBBBBBBBBBBBBBBBBBBBBBBBBBBBBBBB",
"BBBBBBBBBBBBBBBBBBBBBBBBBBBBBBBBBBBBBBBBBBBBBBBBBBBBBBBBBBBBBBBBBBBBBBBBBBBBBBBBBBBBBBBBBBBBBBBB",
"BBBBBBBBBBBBBBBBBBBBBBBBBBBBBBBBBBBBBBBBBBBBBBBBBBBBBBBBBBBBBBBBBBBBBBBBBBBBBBBBBBBBBBBBBBBBBBBB",
"BBBBBBBBBBBBBBBBBBBBBBBBBBBBBBBBBBBBBBBBBBBBBBBBBBBBBBBBBBBBBBBBBBBBBBBBBBBBBBBBBBBBBBBBBBBBBBBB"
};
