/* XPM */
static char *_20f63e8819a4aded22949096b54ad9fm71eXWPYC7IIQKxo_3[] = {
/* columns rows colors chars-per-pixel */
"96 96 77 1 ",
"  c #313C18",
". c #414820",
"X c #6A7D39",
"o c #7B4C4A",
"O c #625D4A",
"+ c #6A5D4A",
"@ c #7B504A",
"# c #6A614A",
"$ c #6A7D41",
"% c #6A6552",
"& c #736552",
"* c #736952",
"= c #7B6D52",
"- c #73695A",
"; c #7B6D5A",
": c #7B7162",
"> c #8B4C4A",
", c #83504A",
"< c #8B504A",
"1 c #8B5552",
"2 c #835952",
"3 c #8B5952",
"4 c #8B5D5A",
"5 c #945952",
"6 c #9C5952",
"7 c #945D5A",
"8 c #8B6152",
"9 c #8B615A",
"0 c #8B695A",
"q c #946152",
"w c #94615A",
"e c #9C615A",
"r c #94695A",
"t c #946562",
"y c #9C6562",
"u c #946D62",
"i c #9C6962",
"p c #837162",
"a c #83756A",
"s c #83796A",
"d c #8B796A",
"f c #9C7162",
"g c #9C756A",
"h c #A46D6A",
"j c #A4756A",
"k c #A47573",
"l c #AC7573",
"z c #A47973",
"x c #AC7D73",
"c c #AC7D7B",
"v c #B47973",
"b c #738141",
"n c #73854A",
"m c #7B854A",
"M c #7B894A",
"N c #8B954A",
"B c #94954A",
"V c #94994A",
"C c #83915A",
"Z c #8B915A",
"A c #949952",
"S c #9C9D52",
"D c #9C9D5A",
"F c #9CA15A",
"G c #A4A15A",
"H c #AC817B",
"J c #B4817B",
"K c #B49D7B",
"L c #A4A162",
"P c #A4AA62",
"I c #D5CEBD",
"U c #DECEBD",
"Y c #DECEC5",
"T c #DED2C5",
"R c #F6E6D5",
"E c #F6EAD5",
"W c #F6EADE",
/* pixels */
"NNNNNNNNNNNNNNNNNNNNNNNNNNNNNNNNNNNNNNNNNNNNNNNNNNNNNNNNNNNNNNNNNNNNNNNNNNNNNNNNNNNNNNNNNNNNNNNN",
"NNNNNNNNNNNNNNNNNNNNNNNNNNNNNNNNNNNNNNNNNNNNNNNNNNNNNNNNNNNNNNNNNNNNNNNNNNNNNNNNNNNNNNNNNNNNNNNN",
"NNNNNNNNNNNNNNNNNNNNNNNNNNNNNNNNNNNNNNNNNNNNNNNNNNNNNNNNNNNNNNNNNNNNNNNNNNNNNNNNNNNNNNNNNNNNNNNN",
"NNNNNNNNNNNNNNNNNNNNNNNNNNNNNNNNNNNNNNNNNNNNNNNNNNNNNNNNNNNNNNNNNNNNNNNNNNNNNNXNNNNNNNNNNNNNNNNN",
"NNNNNNNNNNNNNNNNNNNNNNNNNNNNNNNNNNNNNNNNNNNNNNNNNNNNNNNNNNNXNNNNNNNNNNNNNNNNNXXNNNNNNNNNNNNNNNNN",
"NNNNNNNNNNNNNNNNNNNNNNNNNNNNNNNNNNNNNNNNNNNNNNNNNNNNXNNNNNNXNNNNNNNNNNNNNNNNNXXNXXXNNNNNNNNNNNNN",
"NNNNNNNNNNNNNNNNNNNNNNNNNNNNNNNNNNNNNNNNNNNNNNNNNNBVBXBBNNXNNNNNNNNNNNNNNNXNXXNXXXNNNNNNNNNNNNNN",
"NNNNNNNNNNNNNNNNNNNNNNNNNNNNNNNNNNNNNNNNNNNNNNNNBBVVV$bVBXXNNNNNNNNNNNNNNNXXXXNXXNNNNNNNNNNNNNNN",
"NNNNNNNNNNNNNNNNNNNNNNNNNNNNNNNNNNNNNNNNNNNNNNNVVVVVVVbbVXXNNNNNNNNNNNNNNNNXXXXXXNNNNNNNNNNNNNNN",
"NNNNNNNNNNNNNNNNNNNNNNNNNNNNNNNNNNNNNNNNNNNNNNNVVVVVAAAbVXXNNNNNNNNNNNNNNNNNXXNXNNNNNNNNNNNNNNNN",
"NNNNNNNNNNNNNNNNNNNNNNNNNNNNNNNNNNNNNNNNNNNNNNVVVVAVAAAbb$XNNNNNNNNNNNNNNNNNXXNXNNNNNNNNNNNNNNNN",
"NNNNNNNNNNNNNNNNNNNNNNNNNNNNNNNNNNNNNNNNNNNNNNVVVVAASSAAbBNNNNNNNNNNNNNNNNNNNNNNNNNNNNNNNNNNNNNN",
"NNNNNNNNNNNNNNNNXNNNNNNNNNNNNNNNNNNNNNNNNNNNNNVVVVAAASSSbVVNNNNNNNNNNNNNNNNNNNNNNNNNNNNNNNNNNNNN",
"NNNNNNNNNNNNNNNNXXNNNNNNNNNNNNNNNNNNNNNNNNNNNNVVVASSSFSAAAVVVNNNNNNNNNNNNNNNNNNNNNNNNNNNNNNNNNNN",
"NNNNNNNNNNNNNNNNNXNNNNNNNNNNNNNNNNNNNNNNNNNNNBBVAASDFFFFAAVVVNNNNNNNNNNNNNNNNNNNNNNNNNNNNNNNNNNN",
"NNNNNNNNNNNNNNNNNNXNNXXNNNNNNNNNNNNNNNNNNNNNNVVVAAADFFFFSSAVVBNNNNNNNNNNNNNNNNNNNNNNNNNNNNNNNNNN",
"NNNNNNNNNNNNNNNNNNXXNXNNNNNNNNNNNNNNNNNNNNNNNVVVAAAFFFFFFDAVVBNNNNNNNNNNNNNNNNNNNNNNNNNNNNNNNNNN",
"NNNNNNNNNNNNNNNNNNNXNXXXNNNNNNNNNNNNNNNNNNNNNNVVVVAAFGLLFDAAVVBNNNNNNNNNNNNNNNNNNNNNNNNNNNNNNNNN",
"NNNNNNNNNNNNNNNNNNNXXXXNNNNNNNNNNNNNNNNNNNNNNNVVVAASLLLLGFFSVVNNNNNNNNNNNNNNNNNNNNNNNNNNNNNNNNNN",
"NNNNNNNNNNNNNNNNNNNXXXXNNNNNNNNNNNNNNNNNNNNNNNVVVASFDFLLLFDAAVVNNNNNNNNNNNNNNNNNNNNNNNNNNNNNNNNN",
"NNNNNNNNNNNNNNNNNNNNNNNNNNNNNNNNNNNNNNNNNNNNNVVVVAFLFLLLLFFSVVNNNNNNNNNNNNNNNNNNNNNNNNNNNNNNNNNN",
"NNNNNNNNNNNNNNNNNNNNNNNNNNNNNNNNNNNNNNNNNNNNNBVVAAFFLLLLLFFAVVVNNNNNNNNNNNNNNNNNNNNNNNNNNNNNNNNN",
"NNNNNNNNNNNNNNNNNNNNNNNNNNNNNNNXXNNNNNXNNNNNNVVVSSFFLLLLLFSAVVVNNNNNNNNNNNNNNNNNNNNNNNNNNNNNNNNN",
"NNNNNNNNNNNNNNNNNNNNNNNNNNNNNNNNXXNNNXXNNNNNBBBADFSLLLPLFSSAVVNNNNNNNNNNNNNNNNNNNNNNNNNNNNNNNNNN",
"NNNNNNNNNNNNNXXNNNNNNNNNNNNNNNNNXXNNXNNNXNNNVVASDFFLLLLPLmAVVVVNNNNNNNNNNNNNNNNNNNNNNNNNNNNNNNNN",
"NNNNNNNNXXNNNXXNNNNNNNNNNNNNNNNNNXXNXNNXXNNNVVADFFLLLZLLLMmAVBVNXNNNNNNNNNNNNNNNNNNNNNNNNNNNNNNN",
"NNNNNNNNNXXNNXNNNNNNNNNNNNNNNNNNNXXNXNNXNNNNBVSFDLLLLZZCFFbbVNBXXNNNNNNNNNNNNNNNNNNNNNNNNNNNNNNN",
"NNNNNNNNNNXXXXNXXNNNNNNNNNNNNNNNNNXXXNXNIIIIIIUYYTTTTTTTTTYnAVXXNNNNNNNNNNNNNNNNNNNNNNNNNNNNNNNN",
"NNNNNNNNNNNXXNNXNNNNNNNNNNNNNNNNNNXXXXIIRRRRRRRRREWWWWWWERRIIVXXNNNNNNNNNNNNNNNNNNNNNNNNNNNNNNNN",
"NNNNNNNNNNNXXXXNNNNNNNNNNNNNNNNNNNNIIIRRRRRRRRRRREWWWWWEERRRRIINNNNNNNNNNNNNNNNNNNNNNNNNNNNNNNNN",
"NNNNNNNNNNNNXXNNNNNNNNNNNNNNNNNNNNIRRRRRRRRRRRRRRWWWWWWERRRRRRRIINNNNNNNNNNNNNNNNNNNNNNNNNNNNNNN",
"NNNNNNNNNNNNNNNNNNNNNNNNNNNNNNNIIIRRRRRRRRRRRRRREWWWWWERRRRRRRRRRINNNNNNNNNNNNNNNNNNNNNNNNNNNNNN",
"NNNNNNNNNNNNNNNNNNNNNNNNNNNNNNIRRRRRRRRRR%&---:pdddddddd:RRRRRRRRRINNNNNNNNNNNNNNNNNNNNNNNNNNNNN",
"NNNNNNNNNNNNNNNNNNNNNNNNNNNNNIRRRRRRRR%%%%*-;psddddddddp--%%RRRRRRRINNNNNNNNNNNNNNNNNNNNNNNNNNNN",
"NNNNNNNNNNNNNNNNNNNNNNNNNNNNIRRRRRRRR%%%%&%ppddddddddddp;*%%%%RRRRRRINNNNNNNNNNNNNNNNNNNNNNNNNNN",
"NNNNNNNNNNNNNNNNNNNNNNNNNNNNIRRRRRRRR%%%%&&*ddddddddddss;;%%%%RRRRRRINNNNNNNNNNNNNNNNNNNNNNNNNNN",
"NNNNNNNNNNNNNNNNNNNNNNNNNNNNIRRRRRRR%%%%%%&-;sddddddddd:;&*%%%%RRRRRRINNNNNNNNNNNNNNNNNNNNNNNNNN",
"NNNNNNNNNNNNNNNNNNNNNNNNNNNIRRRRRR%%%%%%%%%;pddddddddds;:*&%%%%%%RRRRINNNNNNNNNNNNNNNNNNNNNNNNNN",
"NNNNNNNNNNNNNNNNNNNNNNNNNNNIRRRR%%%%%%%%%%--;ddHHddJddp;&-&%%%%%%%RRRRINNNNNNNNNNNXNNNNNNNNNNNNN",
"NNNNNNNNNNNNNNNNNNNNNNNNNNIRRRR%%%%%%%%%%%*-zzpaHaJJds;&*&&%%%%%%%RRRRINNNXXXNNNNXNNNNNNNNNNNNNN",
"NNNNNNNNNNNNNNNNNNNNNNNNNNIRRRR%%%%%%%%6e+#&:zxxlxxaap%gu&%%%%%%%%RRRRINNNNNXXNNNXNNNNNNNNNNNNNN",
"NNNNNNNNNNNNNNNNNNNNNNNNNNIRRR%%%%%%ewOO5u++glxHxxHxaHguOO%%%%%%%%RRRRINNNNNNXXNXNNNNNNNNNNNNNNN",
"NNNNNNNNNNNNNNNNNNNNNNNNNNIRRR%%%%%%%ww995ugggzxxxlxHHjfuOuO5%%%%%RRRRINNNNNNXXNXXNNNNNNNNNNNNNN",
"NNNNNNNNNNNNNNNNNNNNNNNNNNIRRR%%%%%%OO5559rgfzcxHjjxxkhwwwrew%%%%%RRRRINNNNNNNXXNXNNNNNNNNNNNNNN",
"NNNNNNNNNNNNNNNNNNNNNNNNNNIRRR%%%%%%OO5559rgficvHjjxxhyywwrew%%%%%RRRRINNNNNNNNNNNNNNNNNNNNNNNNN",
"NNNNNNNNNNNNNNNNNNNNNNXNNNIRRR%%%%%OOuuw5999tzHcHhxjhxhyi5erO%%%%%RRRRINNNNNNNNNNNNNNNNNNNNNNNNN",
"NNNNNNNNNNNNNNNNNNNNNXXNN=KRRR%%666Ouuw9wrwwwuzczzcj7ky7ewwwuO%%%%RRRKK=NNNNNNNNNNNNNNNNNNNNNNNN",
"NNNNNNNNNNNNNXXNNNNNXXNNN=KRRR%%OOw5uww93<99335gzgzw433539wwOOe%%RRRRKK=NNNNNNNNNNNNNNNNNNNNNNNN",
"NNNNNNNNNNNNNNXXXNNXXNNNN=KKRRR%%%O5w139w3rrww4i3t,9933>3335eeeRRRRRKKK=NNNNNNNNNNNNNNNNNNNNNNNN",
"NNNNNNNNNNNNNNNXXNNXNNNNN=KKRRRRRROww<1wr399wwwr8o,93rr@03wewrRRRRRRKKK=NNNNNNNNNNNNNNNNNNNNNNNN",
"NNNNNNNNNNNNNNNNXXNXXNXNN=KKKRRRRRRuu3,q53,,,22333e9www,w5wwRRRRRRRKKKK=NNNNNNNNNNNNNNNNNNNNNNNN",
"NNNNNNNNNNNNNNNNNXXXXNXNN=KKKKRRRRRRuwwuww3339893,39rrr335uRRRRRRKKKKKK=NNNNNNNNNNNNNNNNNNNNNNNN",
"NNNNNNNNNNNNNNNNNNXXXXXNN=KKKKKRRRRRRRurrrrrrrrr00088880rrRRRRRKKKKKKKK=NNNNNNNNNNNNNNNNNNNNNNNN",
"NNNNNNNNNNNNNNNNNNNXXXNNN=KKKKKRRRRRRRurrrrrrrrr00088880rrRRRRRKKKKKKKK=NNNNNNNNNNNNNNNNNNNNNNNN",
"NNNNNNNNNNNNNNNNNNNNNNNNN=KKKKKKRRRRRRRRRRRRRRRRRRRRRRRRRRRRRRKKKKKKKKK=NNNNNNNNNNNNNNNNNNNNNNNN",
"NNNNNNNNNNNNNNNNNNNNNNNNN=KKKKKKKKKRRRRRRRRRRRRRRRRRRRRRRRRRKKKKKKKKKKK=NNNNNNNNNNNNNNNNNNNNNNNN",
"NNNNNNNNNNNNNNNNNNNNNNNN.=KKKKKKKKKKKRRRRRRRRRRRRRRRRRRRRRKKKKKKKKKKKKK=NNNNNNNNNNNNNNNNNNNNNNNN",
"NNNNNNNNNNNNNNNNNNNNNNNN.=KKKKKKKKKKKKKRRRRRRRRRRRRRRRRRKKKKKKKKKKKKKK=.NNNNNNNNNNNNNNNNNNNNNNNN",
"NNNNNNNNNNNNNNNNNNNNNNNN..=KKKKKKKKKKKKKKKKKKKKKKKKKKKKKKKKKKKKKKKKKKK=.NNNNNNNNNNNNNNNNNNNNNNNN",
"NNNNNNNNNNNNNNNNNNNNNNNN...=KKKKKKKKKKKKKKKKKKKKKKKKKKKKKKKKKKKKKKKKKK=.NNNNNNNNNNNNNNNNNNNNNNNN",
"NNNNNNNNNNNNNNNNNNNNNNNN...=KKKKKKKKKKKKKKKKKKKKKKKKKKKKKKKKKKKKKKKKK=..NNNNNNNNNNNNNNNNNNNNNNNN",
"NNNNNNNNNNNNXNNNNXNNNNNN....=KKKKKKKKKKKKKKKKKKKKKKKKKKKKKKKKKKKKKKK=. .NNNNNNNNNNNNNNNNNNNNNNNN",
"NNNNNNNNNNNNXXNNXXNNNNNNN...=KKKKKKKKKKKKKKKKKKKKKKKKKKKKKKKKKKKKKKK=  NNNNNNNNNNNNNNNNNNNNNNNNN",
"NNNNNNNNNNNNXXNNXNNNNNNNN....=KKKKKKKKKKKKKKKKKKKKKKKKKKKKKKKKKKKKK=.  NNNNNNNNNXXNNNNNXNNNNNNNN",
"NNNNNNNNNNNNNXXNXNNNNNNNNN....==KKKKKKKKKKKKKKKKKKKKKKKKKKKKKKKKK==.   NNNNNNNNNXXXNNNXXNNNNNNNN",
"NNNNNNNNNNNNNXXNXNNNNNNNNNNN....==KKKKKKKKKKKKKKKKKKKKKKKKKKKK===  .XXNNNNNNNNNNNXXXXXXNNNNNNNNN",
"NNNNNNNNNNNXNNXXXNNNNNNNNNNN......==KKKKKKKKKKKKKKKKKKKKKKKKK=....  XNNNNNNNNNNNNNXNXXXNNNNNNNNN",
"NNNNNNNNNNNXXNXXXNNNNNNNNNNNNN......=========================...  XXXNNNNNNNNNNNNNNXNXXNNNNNNNNN",
"NNNNNNNNNNNNXXNXNNNNNNNNNNNNNNN............... .................NXXXXNNNNNNNNNNNNNNXXXXNNNNNNNNN",
"NNNNNNNNNNNNNXNXNNNNNNNNNNNXXNNXN............. ..............NNNNNNNNNNNNNNNNNNNNNNNXXXNNNNNNNNN",
"NNNNNNNNNNNNNNNXNNNNNNNNNNNNXXNXNNNN.......... ..........NNNNNNNNNNNNNNNNNNNNNNNNNNNXXXNNNNNNNNN",
"NNNNNNNNNNNNNNNNNNNNNNNNNNNNXXXXNNNNNNNN...... ........NNNNNNNNNNNNNNNNNNNNNNNNNNNNNNXNXNNNNNNNN",
"NNNNNNNNNNNNNNNNNNNNNNNNNNNNNXXXNNNNNNNNNNN..NXNNNNNNNNNNNNNNNNNNNNNNNNNNNNNNNNNNNNNNNNNNNNNNNNN",
"NNNNNNNNNNNNNNNNNNNNNNNNNNNNNXXNXNNNNNNNNNNNNNXXNNNNNNNNNNNNNNNNNNNNNNNNNNNNNNNNNNNNNNNNNNNNNNNN",
"NNNNNNNNNNNNNNNNNNNNNNNNNNNNNNNNXNNNNNNNNNNNNNNXNXNNNNNNNNNNNNNNNNNNNNNNNNNNNNNNNNNNNNNNNNNNNNNN",
"NNNNNNNNNNNNNNNNNNNNNNNNNNNNNNNNNNNNNNNNNXXXXXNXXXNNNNNNNNNNNNNNNNNNNNNNNNNNNNNNNNNNNNNNNNNNNNNN",
"NNNNNNNNNNNNNNNNNNNNNNNNNNNNNNNNNNNNNNNNNNNNNXXXXNNNNNNNNNNNNNNNNNNNNNNNNNNNNNNNNNNNNNNNNNNNNNNN",
"NNNNNNNNNNNNNNNNNNNNNNNNNNNNNNNNNNNNNNNNNNNNNNXXXNNNNNNNNNNNNNNNNNNNNNNNNNNNNNNNNNNNNNNNNNNNNNNN",
"NNNNNNNNNNNNNNNNNNNNNNNNNNNNNNNNNNNNNNNNNNNNNNNXNNNNNNNNNNNNNNNNNNNNNNNNNXNNNNNNNNNNNNNNNNNNNNNN",
"NNNNNNNNNNNNNNNNNNNNNNNNNNNNNNNNXNNNNNNNNNNNNNNNNNNNNNNNNNNNNNNNNNNNNNNNXXNNNNNNNNNNNNNNNNNNNNNN",
"NNNNNNNNNNNNNNNNNNNNNNNNNXXNNNNNXNNNNNNNNNNNNNNNNNNNNNNNNNNNNNNNNNNNNNNXXNNNNNNNNNNNNNNNNNNNNNNN",
"NNNNNNNNNNNNNNNNNNNNNNNNNXXXNNNXXNNNNNNNNNNNNNNNNNNNNNNNNNNNNNNNNNNXNNXXXNNNNNNNNNNNNNNNNNNNNNNN",
"NNNNNNNNNNNNNNNNNXXNNNNNNNXXNNNXNNNNNNNNNNNNNNNNNNNNNNNNNNNNNNNNNNNXXNXXXNNNNNNNNNNNNNNNNNNNNNNN",
"NNNNNNNNNXXXNNNNNXXNNNNNNNXXXNXXNXXNNNNNNNNNNNNNNNNNNNNNNNNNNNNXXXNNXXXXNNNNNNNNNNNNNNNNNNNNNNNN",
"NNNNNNNNNNNXXXNNXXNNNNNNNXNXXXXXXXNNNNNNNNNNNNNNNNNNNNNNNNNNNNNNNXXXXXXXNNNNNNNNNNNNNNNNNNNNNNNN",
"NNNNNNNNNNNNNXXXXNNNNNNNNXXNXXXXXNNNNNNNNNNNNNNNNNNNNNNNNNNNNNNNNNXXXXXXNNNNNNNNNNNNNNNNNNNNNNNN",
"NNNNNNNNNNNNNXXXXNNNNNNNNNXXXXXXNNNNNNNNNNNNNNNNNNNNNNNNNNNNNNNNNNNXXXXNNNNNNNNNNNNNNNNNNNNNNNNN",
"NNNNNNNNNNNNNXXXXNNNNNNNNNNXXXNXNNNNNNNNNNNNNNNNNNNNNNNNNNNNNNNNNNNXNNNNNNNNNNNNNNNNNNNNNNNNNNNN",
"NNNNNNNNNNNNNNNNNNNNNNNNNNNNXNNNNNNNNNNNNNNNNNNNNNNNNNNNNNNNNNNNNNNNNNNNNNNNNNNNNNNNNNNNNNNNNNNN",
"NNNNNNNNNNNNNNNNNNNNNNNNNNNNNNNNNNNNNNNNNNNNNNNNNNNNNNNNNNNNNNNNNNNNNNNNNNNNNNNNNNNNNNNNNNNNNNNN",
"NNNNNNNNNNNNNNNNNNNNNNNNNNNNNNNNNNNNNNNNNNNNNNNNNNNNNNNNNNNNNNNNNNNNNNNNNNNNNNNNNNNNNNNNNNNNNNNN",
"NNNNNNNNNNNNNNNNNNNNNNNNNNNNNNNNNNNNNNNNNNNNNNNNNNNNNNNNNNNNNNNNNNNNNNNNNNNNNNNNNNNNNNNNNNNNNNNN",
"NNNNNNNNNNNNNNNNNNNNNNNNNNNNNNNNNNNNNNNNNNNNNNNNNNNNNNNNNNNNNNNNNNNNNNNNNNNNNNNNNNNNNNNNNNNNNNNN",
"NNNNNNNNNNNNNNNNNNNNNNNNNNNNNNNNNNNNNNNNNNNNNNNNNNNNNNNNNNNNNNNNNNNNNNNNNNNNNNNNNNNNNNNNNNNNNNNN",
"NNNNNNNNNNNNNNNNNNNNNNNNNNNNNNNNNNNNNNNNNNNNNNNNNNNNNNNNNNNNNNNNNNNNNNNNNNNNNNNNNNNNNNNNNNNNNNNN",
"NNNNNNNNNNNNNNNNNNNNNNNNNNNNNNNNNNNNNNNNNNNNNNNNNNNNNNNNNNNNNNNNNNNNNNNNNNNNNNNNNNNNNNNNNNNNNNNN"
};
