/* XPM */
static char *_20f63e8819a4aded22949096b54ad9fm71eXWPYC7IIQKxo_4[] = {
/* columns rows colors chars-per-pixel */
"96 96 73 1 ",
"  c #313C18",
". c #414820",
"X c #6A7D39",
"o c #7B4C4A",
"O c #625D4A",
"+ c #6A5D4A",
"@ c #7B504A",
"# c #6A7D41",
"$ c #6A6552",
"% c #736552",
"& c #736952",
"* c #7B6D52",
"= c #736D5A",
"- c #7B6D5A",
"; c #7B7162",
": c #8B4C4A",
"> c #83504A",
", c #8B504A",
"< c #8B5552",
"1 c #835952",
"2 c #8B5D52",
"3 c #8B5D5A",
"4 c #945952",
"5 c #9C5D52",
"6 c #945D5A",
"7 c #8B6152",
"8 c #8B615A",
"9 c #8B695A",
"0 c #946152",
"q c #94655A",
"w c #9C615A",
"e c #94695A",
"r c #9C6562",
"t c #946D62",
"y c #9C6962",
"u c #837162",
"i c #83756A",
"p c #83796A",
"a c #8B796A",
"s c #9C7162",
"d c #9C756A",
"f c #A46D6A",
"g c #A4716A",
"h c #A47173",
"j c #AC7573",
"k c #A47D73",
"l c #AC7973",
"z c #AC7D7B",
"x c #B47973",
"c c #738541",
"v c #7B854A",
"b c #8B954A",
"n c #94954A",
"m c #94994A",
"M c #949D52",
"N c #9C9D52",
"B c #9C9D5A",
"V c #9CA15A",
"C c #A4A15A",
"Z c #AC817B",
"A c #AC897B",
"S c #B4817B",
"D c #B49D7B",
"F c #A4A562",
"G c #A4AA62",
"H c #A4AA6A",
"J c #B48983",
"K c #D5CABD",
"L c #DECEBD",
"P c #DED2C5",
"I c #F6E6D5",
"U c #F6EAD5",
"Y c #F6EADE",
/* pixels */
"bbbbbbbbbbbbbbbbbbbbbbbbbbbbbbbbbbbbbbbbbbbbbbbbbbbbbbbbbbbbbbbbbbbbbbbbbbbbbbbbbbbbbbbbbbbbbbbb",
"bbbbbbbbbbbbbbbbbbbbbbbbbbbbbbbbbbbbbbbbbbbbbbbbbbbbbbbbbbbbbbbbbbbbbbbbbbbbbbbbbbbbbbbbbbbbbbbb",
"bbbbbbbbbbbbbbbbbbbbbbbbbbbbbbbbbbbbbbbbbbbbbbbbbbbbbbbbbbbbbbbbbbbbbbbbbbbbbbbbbbbbbbbbbbbbbbbb",
"bbbbbbbbbbbbbbbbbbbbbbbbbbbbbbbbbbbbbbbbbbbbbbbbbbbbbbbbbbbbbbbbbbbbbbbbbbbbbbXbbbbbbbbbbbbbbbbb",
"bbbbbbbbbbbbbbbbbbbbbbbbbbbbbbbbbbbbbbbbbbbbbbbbbbbbbbbmbbbXbbbbbbbbbbbbbbbbbXXbbbbbbbbbbbbbbbbb",
"bbbbbbbbbbbbbbbbbbbbbbbbbbbbbbbbbbbbbbbbbbbbbbbbbbbbXnmmnbbXbbbbbbbbbbbbbbbbbXXbXXXbbbbbbbbbbbbb",
"bbbbbbbbbbbbbbbbbbbbbbbbbbbbbbbbbbbbbbbbbbbbbbbbbbmmncmmmmXnbbbbbbbbbbbbbbXbXXbXXXbbbbbbbbbbbbbb",
"bbbbbbbbbbbbbbbbbbbbbbbbbbbbbbbbbbbbbbbbbbbbbbbbbmmmmccMmccbmbbbbbbbbbbbbbXXXXbXXbbbbbbbbbbbbbbb",
"bbbbbbbbbbbbbbbbbbbbbbbbbbbbbbbbbbbbbbbbbbbbbbbbmmmMMMccMccmnnbbbbbbbbbbbbbXXXXXXbbbbbbbbbbbbbbb",
"bbbbbbbbbbbbbbbbbbbbbbbbbbbbbbbbbbbbbbbbbbbbbbbmMmMMMMMcMccmnmbbbbbbbbbbbbbbXXbXbbbbbbbbbbbbbbbb",
"bbbbbbbbbbbbbbbbbbbbbbbbbbbbbbbbbbbbbbbbbbbbbbbmMMMMMMMccccmmmnbbbbbbbbbbbbbXXbXbbbbbbbbbbbbbbbb",
"bbbbbbbbbbbbbbbbbbbbbbbbbbbbbbbbbbbbbbbbbbbbbnbmMMMMMNNMcMmMmnmbbbbbbbbbbbbbbbbbbbbbbbbbbbbbbbbb",
"bbbbbbbbbbbbbbbbXbbbbbbbbbbbbbbbbbbbbbbbbbbbbbmmmMNBVVVNvMMmmmbnbbbbbbbbbbbbbbbbbbbbbbbbbbbbbbbb",
"bbbbbbbbbbbbbbbbXXbbbbbbbbbbbbbbbbbbbbbbbbbbbmmMMMBVVVVNMMMmmmbbbbbbbbbbbbbbbbbbbbbbbbbbbbbbbbbb",
"bbbbbbbbbbbbbbbbbXbbbbbbbbbbbbbbbbbbbbbbbbbbbmMmNNVVVVBNMMMmmmnbbbbbbbbbbbbbbbbbbbbbbbbbbbbbbbbb",
"bbbbbbbbbbbbbbbbbbXbbXXbbbbbbbbbbbbbbbbbbbbnmnMNVVFVFVBNMMMmmmbbbbbbbbbbbbbbbbbbbbbbbbbbbbbbbbbb",
"bbbbbbbbbbbbbbbbbbXXbXbbbbbbbbbbbbbbbbbbbbbbmmMVVFFFFFVNBMMMmbbbbbbbbbbbbbbbbbbbbbbbbbbbbbbbbbbb",
"bbbbbbbbbbbbbbbbbbbXbXXXbbbbbbbbbbbbbbbbbbbbmMVVCFFFFVVVMNmmbbbbbbbbbbbbbbbbbbbbbbbbbbbbbbbbbbbb",
"bbbbbbbbbbbbbbbbbbbXXXXbbbbbbbbbbbbbbbbbbbbmmNBVVFFFFFVBMmmmnbbbbbbbbbbbbbbbbbbbbbbbbbbbbbbbbbbb",
"bbbbbbbbbbbbbbbbbbbXXXXbbbbbbbbbbbbbbbbbbbbMMMVFFFFFFFNBmmMmbbbbbbbbbbbbbbbbbbbbbbbbbbbbbbbbbbbb",
"bbbbbbbbbbbbbbbbbbbbbbbbbbbbbbbbbbbbbbbbbbmMMVCFFFFFVNVMmmmbbbbbbbbbbbbbbbbbbbbbbbbbbbbbbbbbbbbb",
"bbbbbbbbbbbbbbbbbbbbbbbbbbbbbbbbbbbbbbbbbbmMBVFFFFFFBNMMMmmnbbbbbbbbbbbbbbbbbbbbbbbbbbbbbbbbbbbb",
"bbbbbbbbbbbbbbbbbbbbbbbbbbbbbbbXXbbbbbXbbbmVVFFFFFFFBMMMmmmbbbbbbbbbbbbbbbbbbbbbbbbbbbbbbbbbbbbb",
"bbbbbbbbbbbbbbbbbbbbbbbbbbbbbbbbXXbbbXXbbbbVVVFFFFFFBMMmmmbbbbbbbbbbbbbbbbbbbbbbbbbbbbbbbbbbbbbb",
"bbbbbbbbbbbbbXXbbbbbbbbbbbbbbbbbXXbbXbbbXbmNFVGFFFFVVMmmnXbbbbbbbbbbbbbbbbbbbbbbbbbbbbbbbbbbbbbb",
"bbbbbbbbXXbbbXXbbbbbbbbbbbbbbbbbbXXbXbbXXmMVVFFHHGHFVcmmbXXbbbbbXbbbbbbbbbbbbbbbbbbbbbbbbbbbbbbb",
"bbbbbbbbbXXbbXbbbbbbbbbbbbbbbbbbbXXbXbbXbmmMMFGGGGFFBc#XnbXXbbbXXbbbbbbbbbbbbbbbbbbbbbbbbbbbbbbb",
"bbbbbbbbbbXXXXbXXbbbbbbbbbbbbbbbbbXXXbXbKKKKLPPPPPPPLKKKKKKXbbXXbbbbbbbbbbbbbbbbbbbbbbbbbbbbbbbb",
"bbbbbbbbbbbXXbbXbbbbbbbbbbbbbbbbbbXXXXKKIIIIIIYYYUUIIIIIIIIKKbXXbbbbbbbbbbbbbbbbbbbbbbbbbbbbbbbb",
"bbbbbbbbbbbXXXXbbbbbbbbbbbbbbbbbbbbKKKIIIIIIUUYYYYUIIIIIIIIIIKKbbbbbbbbbbbbbbbbbbbbbbbbbbbbbbbbb",
"bbbbbbbbbbbbXXbbbbbbbbbbbbbbbbbbbbKIIIIIIIIIIUYYYYUIIIIIIIIIIIIKKbbbbbbbbbbbbbbbbbbbbbbbbbbbbbbb",
"bbbbbbbbbbbbbbbbbbbbbbbbbbbbbbbKKKIIIIIIIIIIIIYYYUUIIIIIIIIIIIIIIKbbbbbbbbbbbbbbbbbbbbbbbbbbbbbb",
"bbbbbbbbbbbbbbbbbbbbbbbbbbbbbbKIIIIIIIIII$%=uuaaaaa;-=$$$IIIIIIIIIKbbbbbbbbbbbbbbbbbbbbbbbbbbbbb",
"bbbbbbbbbbbbbbbbbbbbbbbbbbbbbKIIIIIIII$$$$$;;uaaaau;;u-$$$$$IIIIIIIKbbbbbbbbbbbbbbbbbbbbbbbbbbbb",
"bbbbbbbbbbbbbbbbbbbbbbbbbbbbKIIIIIIII$$$$$%;-aaaaaau;p-$$$$$$$IIIIIIKbbbbbbbbbbbbbbbbbbbbbbbbbbb",
"bbbbbbbbbbbbbbbbbbbbbbbbbbbbKIIIIIIII$$$$$$%=uaaaaaau;=$$$$$$$IIIIIIKbbbbbbbbbbbbbbbbbbbbbbbbbbb",
"bbbbbbbbbbbbbbbbbbbbbbbbbbbbKIIIIIII$$$$$$$&-;aaaaaau=&$$$$$$$$IIIIIIKbbbbbbbbbbbbbbbbbbbbbbbbbb",
"bbbbbbbbbbbbbbbbbbbbbbbbbbbKIIIIII$$$$$$$$$%u;aaaaaaa-&&$$$$$$$$$IIIIKbbbbbbbbbbbbbbbbbbbbbbbbbb",
"bbbbbbbbbbbbbbbbbbbbbbbbbbbKIIII$$$$$$$$$$$$-aaZZaaSau-=$$$$$$$$$$IIIIKbbbbbbbbbbbXbbbbbbbbbbbbb",
"bbbbbbbbbbbbbbbbbbbbbbbbbbKIIII$$$$$$$$$$$$%ykuiZiSSa;=&$$$$$$$$$$IIIIKbbbXXXbbbbXbbbbbbbbbbbbbb",
"bbbbbbbbbbbbbbbbbbbbbbbbbbKIIII$$$$$$$$5wO+O-llljlluuu-dt$$$$$$$$$IIIIKbbbbbXXbbbXbbbbbbbbbbbbbb",
"bbbbbbbbbbbbbbbbbbbbbbbbbbKIII$$$$$$wqOO4tO+AjlZllZlulkg$O$$$$$$$$IIIIKbbbbbbXXbXbbbbbbbbbbbbbbb",
"bbbbbbbbbbbbbbbbbbbbbbbbbbKIII$$$$$$$qq884eeJzkllljlZzkdtOtO4$$$$$IIIIKbbbbbbXXbXXbbbbbbbbbbbbbb",
"bbbbbbbbbbbbbbbbbbbbbbbbbbKIII$$$$$$OO4448sdszSxZggllhyyyqewq$$$$$IIIIKbbbbbbbXXbXbbbbbbbbbbbbbb",
"bbbbbbbbbbbbbbbbbbbbbbbbbbKIII$$$$$$OO4448setyzSZggllhhhqqewq$$$$$IIIIKbbbbbbbbbbbbbbbbbbbbbbbbb",
"bbbbbbbbbbbbbbbbbbbbbbXbbbKIII$$$$$OOttq488828lzlflgfggjy4weO$$$$$IIIIKbbbbbbbbbbbbbbbbbbbbbbbbb",
"bbbbbbbbbbbbbbbbbbbbbXXbb*DIII$$555Ottq8qeqqq23ttyzqrr26wqqqtO$$$$IIIDD*bbbbbbbbbbbbbbbbbbbbbbbb",
"bbbbbbbbbbbbbXXbbbbbXXbbb*DIII$$OOq4tqq82,8822<>2qqt382428qqOOw$$IIIIDD*bbbbbbbbbbbbbbbbbbbbbbbb",
"bbbbbbbbbbbbbbXXXbbXXbbbb*DDIII$$$O4q<28q2eeqq3422>8822:2224wwwIIIIIDDD*bbbbbbbbbbbbbbbbbbbbbbbb",
"bbbbbbbbbbbbbbbXXbbXbbbbb*DDIIIIIIOqq,<qe288qqqe7o>82ee@92qwqeIIIIIIDDD*bbbbbbbbbbbbbbbbbbbbbbbb",
"bbbbbbbbbbbbbbbbXXbXXbXbb*DDDIIIIIItt2>042>>>11222w8qqq>q4qqIIIIIIIDDDD*bbbbbbbbbbbbbbbbbbbbbbbb",
"bbbbbbbbbbbbbbbbbXXXXbXbb*DDDDIIIIIItqqtqq2228782>28eee224tIIIIIIDDDDDD*bbbbbbbbbbbbbbbbbbbbbbbb",
"bbbbbbbbbbbbbbbbbbXXXXXbb*DDDDDIIIIIIIteeeeeeeee99977779eeIIIIIDDDDDDDD*bbbbbbbbbbbbbbbbbbbbbbbb",
"bbbbbbbbbbbbbbbbbbbXXXbbb*DDDDDIIIIIIIteeeeeeeee99977779eeIIIIIDDDDDDDD*bbbbbbbbbbbbbbbbbbbbbbbb",
"bbbbbbbbbbbbbbbbbbbbbbbbb*DDDDDDIIIIIIIIIIIIIIIIIIIIIIIIIIIIIIDDDDDDDDD*bbbbbbbbbbbbbbbbbbbbbbbb",
"bbbbbbbbbbbbbbbbbbbbbbbbb*DDDDDDDDDIIIIIIIIIIIIIIIIIIIIIIIIIDDDDDDDDDDD*bbbbbbbbbbbbbbbbbbbbbbbb",
"bbbbbbbbbbbbbbbbbbbbbbbb.*DDDDDDDDDDDIIIIIIIIIIIIIIIIIIIIIDDDDDDDDDDDDD*bbbbbbbbbbbbbbbbbbbbbbbb",
"bbbbbbbbbbbbbbbbbbbbbbbb.*DDDDDDDDDDDDDIIIIIIIIIIIIIIIIIDDDDDDDDDDDDDD*.bbbbbbbbbbbbbbbbbbbbbbbb",
"bbbbbbbbbbbbbbbbbbbbbbbb..*DDDDDDDDDDDDDDDDDDDDDDDDDDDDDDDDDDDDDDDDDDD*.bbbbbbbbbbbbbbbbbbbbbbbb",
"bbbbbbbbbbbbbbbbbbbbbbbb...*DDDDDDDDDDDDDDDDDDDDDDDDDDDDDDDDDDDDDDDDDD*.bbbbbbbbbbbbbbbbbbbbbbbb",
"bbbbbbbbbbbbbbbbbbbbbbbb...*DDDDDDDDDDDDDDDDDDDDDDDDDDDDDDDDDDDDDDDDD*..bbbbbbbbbbbbbbbbbbbbbbbb",
"bbbbbbbbbbbbXbbbbXbbbbbb....*DDDDDDDDDDDDDDDDDDDDDDDDDDDDDDDDDDDDDDD*. .bbbbbbbbbbbbbbbbbbbbbbbb",
"bbbbbbbbbbbbXXbbXXbbbbbbb...*DDDDDDDDDDDDDDDDDDDDDDDDDDDDDDDDDDDDDDD*  bbbbbbbbbbbbbbbbbbbbbbbbb",
"bbbbbbbbbbbbXXbbXbbbbbbbb....*DDDDDDDDDDDDDDDDDDDDDDDDDDDDDDDDDDDDD*.  bbbbbbbbbXXbbbbbXbbbbbbbb",
"bbbbbbbbbbbbbXXbXbbbbbbbbb....**DDDDDDDDDDDDDDDDDDDDDDDDDDDDDDDDD**.   bbbbbbbbbXXXbbbXXbbbbbbbb",
"bbbbbbbbbbbbbXXbXbbbbbbbbbbb....**DDDDDDDDDDDDDDDDDDDDDDDDDDDD***  .XXbbbbbbbbbbbXXXXXXbbbbbbbbb",
"bbbbbbbbbbbXbbXXXbbbbbbbbbbb......**DDDDDDDDDDDDDDDDDDDDDDDDD*....  XbbbbbbbbbbbbbXbXXXbbbbbbbbb",
"bbbbbbbbbbbXXbXXXbbbbbbbbbbbbb......*************************...  XXXbbbbbbbbbbbbbbXbXXbbbbbbbbb",
"bbbbbbbbbbbbXXbXbbbbbbbbbbbbbbb............... .................bXXXXbbbbbbbbbbbbbbXXXXbbbbbbbbb",
"bbbbbbbbbbbbbXbXbbbbbbbbbbbXXbbXb............. ..............bbbbbbbbbbbbbbbbbbbbbbbXXXbbbbbbbbb",
"bbbbbbbbbbbbbbbXbbbbbbbbbbbbXXbXbbbb.......... ..........bbbbbbbbbbbbbbbbbbbbbbbbbbbXXXbbbbbbbbb",
"bbbbbbbbbbbbbbbbbbbbbbbbbbbbXXXXbbbbbbbb...... ........bbbbbbbbbbbbbbbbbbbbbbbbbbbbbbXbXbbbbbbbb",
"bbbbbbbbbbbbbbbbbbbbbbbbbbbbbXXXbbbbbbbbbbb..bXbbbbbbbbbbbbbbbbbbbbbbbbbbbbbbbbbbbbbbbbbbbbbbbbb",
"bbbbbbbbbbbbbbbbbbbbbbbbbbbbbXXbXbbbbbbbbbbbbbXXbbbbbbbbbbbbbbbbbbbbbbbbbbbbbbbbbbbbbbbbbbbbbbbb",
"bbbbbbbbbbbbbbbbbbbbbbbbbbbbbbbbXbbbbbbbbbbbbbbXbXbbbbbbbbbbbbbbbbbbbbbbbbbbbbbbbbbbbbbbbbbbbbbb",
"bbbbbbbbbbbbbbbbbbbbbbbbbbbbbbbbbbbbbbbbbXXXXXbXXXbbbbbbbbbbbbbbbbbbbbbbbbbbbbbbbbbbbbbbbbbbbbbb",
"bbbbbbbbbbbbbbbbbbbbbbbbbbbbbbbbbbbbbbbbbbbbbXXXXbbbbbbbbbbbbbbbbbbbbbbbbbbbbbbbbbbbbbbbbbbbbbbb",
"bbbbbbbbbbbbbbbbbbbbbbbbbbbbbbbbbbbbbbbbbbbbbbXXXbbbbbbbbbbbbbbbbbbbbbbbbbbbbbbbbbbbbbbbbbbbbbbb",
"bbbbbbbbbbbbbbbbbbbbbbbbbbbbbbbbbbbbbbbbbbbbbbbXbbbbbbbbbbbbbbbbbbbbbbbbbXbbbbbbbbbbbbbbbbbbbbbb",
"bbbbbbbbbbbbbbbbbbbbbbbbbbbbbbbbXbbbbbbbbbbbbbbbbbbbbbbbbbbbbbbbbbbbbbbbXXbbbbbbbbbbbbbbbbbbbbbb",
"bbbbbbbbbbbbbbbbbbbbbbbbbXXbbbbbXbbbbbbbbbbbbbbbbbbbbbbbbbbbbbbbbbbbbbbXXbbbbbbbbbbbbbbbbbbbbbbb",
"bbbbbbbbbbbbbbbbbbbbbbbbbXXXbbbXXbbbbbbbbbbbbbbbbbbbbbbbbbbbbbbbbbbXbbXXXbbbbbbbbbbbbbbbbbbbbbbb",
"bbbbbbbbbbbbbbbbbXXbbbbbbbXXbbbXbbbbbbbbbbbbbbbbbbbbbbbbbbbbbbbbbbbXXbXXXbbbbbbbbbbbbbbbbbbbbbbb",
"bbbbbbbbbXXXbbbbbXXbbbbbbbXXXbXXbXXbbbbbbbbbbbbbbbbbbbbbbbbbbbbXXXbbXXXXbbbbbbbbbbbbbbbbbbbbbbbb",
"bbbbbbbbbbbXXXbbXXbbbbbbbXbXXXXXXXbbbbbbbbbbbbbbbbbbbbbbbbbbbbbbbXXXXXXXbbbbbbbbbbbbbbbbbbbbbbbb",
"bbbbbbbbbbbbbXXXXbbbbbbbbXXbXXXXXbbbbbbbbbbbbbbbbbbbbbbbbbbbbbbbbbXXXXXXbbbbbbbbbbbbbbbbbbbbbbbb",
"bbbbbbbbbbbbbXXXXbbbbbbbbbXXXXXXbbbbbbbbbbbbbbbbbbbbbbbbbbbbbbbbbbbXXXXbbbbbbbbbbbbbbbbbbbbbbbbb",
"bbbbbbbbbbbbbXXXXbbbbbbbbbbXXXbXbbbbbbbbbbbbbbbbbbbbbbbbbbbbbbbbbbbXbbbbbbbbbbbbbbbbbbbbbbbbbbbb",
"bbbbbbbbbbbbbbbbbbbbbbbbbbbbXbbbbbbbbbbbbbbbbbbbbbbbbbbbbbbbbbbbbbbbbbbbbbbbbbbbbbbbbbbbbbbbbbbb",
"bbbbbbbbbbbbbbbbbbbbbbbbbbbbbbbbbbbbbbbbbbbbbbbbbbbbbbbbbbbbbbbbbbbbbbbbbbbbbbbbbbbbbbbbbbbbbbbb",
"bbbbbbbbbbbbbbbbbbbbbbbbbbbbbbbbbbbbbbbbbbbbbbbbbbbbbbbbbbbbbbbbbbbbbbbbbbbbbbbbbbbbbbbbbbbbbbbb",
"bbbbbbbbbbbbbbbbbbbbbbbbbbbbbbbbbbbbbbbbbbbbbbbbbbbbbbbbbbbbbbbbbbbbbbbbbbbbbbbbbbbbbbbbbbbbbbbb",
"bbbbbbbbbbbbbbbbbbbbbbbbbbbbbbbbbbbbbbbbbbbbbbbbbbbbbbbbbbbbbbbbbbbbbbbbbbbbbbbbbbbbbbbbbbbbbbbb",
"bbbbbbbbbbbbbbbbbbbbbbbbbbbbbbbbbbbbbbbbbbbbbbbbbbbbbbbbbbbbbbbbbbbbbbbbbbbbbbbbbbbbbbbbbbbbbbbb",
"bbbbbbbbbbbbbbbbbbbbbbbbbbbbbbbbbbbbbbbbbbbbbbbbbbbbbbbbbbbbbbbbbbbbbbbbbbbbbbbbbbbbbbbbbbbbbbbb",
"bbbbbbbbbbbbbbbbbbbbbbbbbbbbbbbbbbbbbbbbbbbbbbbbbbbbbbbbbbbbbbbbbbbbbbbbbbbbbbbbbbbbbbbbbbbbbbbb"
};
