/* XPM */
static char *result[] = {
/* columns rows colors chars-per-pixel */
"96 96 15 1 ",
"  c #273320",
". c #2C3825",
"X c #323F2B",
"o c #434623",
"O c #405435",
"+ c #4A603D",
"@ c #6D7E3E",
"# c #3C376B",
"$ c #007F7F",
"% c #5B5448",
"& c #536D44",
"* c #6B6255",
"= c #8F974A",
"- c #4B4484",
"; c #008E8E",
/* pixels */
"================================================================================================",
"================================================================================================",
"========================                                          ==============================",
"========================                                          ============@=================",
"========================                                          ===========@@=================",
"=====================      &&&&&&&&&&&&&&&&&&&&&&&&&&&&&&++++++      ========@@=@@@=============",
"=====================      &&&&&&&&&&&&&&&&&&&&&&&&&&&&&&++++++      =====@=@@=@@@==============",
"=====================   &&&&&&&&&&&&&&&&&&&&&&&&&&&&&&&&&+++++++++   =====@@@@=@@===============",
"=====================   &&&&&&&&&&&&&&&&&&&&&&&&&&&&&&&&&+++++++++   ======@@@@@@===============",
"=====================   &&&&&&&&&&&&&&&&&&&&&&&&&&&&&&&&&+++++++++   =======@@=@================",
"=====================   &&&&&&&&&&&&&&&&&&&&&&&&&&&&&&&&&+++++++++   =======@@=@================",
"=====================   &&&&&&&&&&&&&&&&&&&&&&&&&&&&&&&&&+++++++++   ===========================",
"================@====   &&&&&&&&&&&&&&&&&&&&&&&&&&&&&&&&&&&&++++++   ===========================",
"================@@===   &&&&&&&&&&&&&&&&&&&&&&&&&&&&&&&&&&&&++++++   ===========================",
"=================@===   &&&&&&&&&&&&&&&&&&&&&&&&&&&&&&&&&&&&++++++   ===========================",
"==================@==   &&&&&&&&&&&&&&&&&&&&&&&&&&&&&&&&&&&&++++++   ===========================",
"==================@@=   &&&&&&&&&&&&&&&&&&&&&&&&&&&&&&&&&&&&++++++   ===========================",
"===================@=   &&&&&&&&&&&&&&&&&&&&&&&&&&&&&&&&&&&&++++++   ===========================",
"===================@@   &&&&&&&&&&&&&&&&&&&&&&&&&&&&&&&&&&&&++++++   ===========================",
"===================@@   &&&OOOOOOOOO&&&&&&&&&&&&OOOOOOOOO&&&++++++   ===========================",
"=====================   &&&OOOOOOOOO&&&&&&&&&&&&OOOOOOOOO&&&++++++   ===========================",
"=====================   &&&.........&&&&&&&&&&&&.........&&&++++++   ===========================",
"=====================   &&&.........&&&&&&&&&&&&.........&&&++++++   ===========================",
"=====================   &&&.........&&&&&&&&&&&&.........&&&++++++   ===========================",
"=============@@======   &&&XXX...XXX&&&&&&&&&&&&XXX...XXX&&&++++++   ===========================",
"========@@===@@======   &&&XXX...XXX&&&&&&&&&&&&XXX...XXX&&&++++++   ===========================",
"=========@@==@=======   &&&&&&&&&&&&&&&&&&&&&&&&&&&&&&&&&&&&++++++   ===========================",
"==========@@@@=@@====   &&&&&&&&&&&&&&&&&&&&&&&&&&&&&&&&&&&&++++++   ===========================",
"===========@@==@=====   &&&&&&&&&&&&&&&&&&&&&&&&&&&&&&&&&&&&++++++   ===========================",
"===========@@@@======   &&&&&&&&&&&&&&&&&&&&&&&&&&&&&&&&&&&&++++++   ===========================",
"============@@=======   &&&&&&&&&&&&&&&&&&&&&&&&&&&&&&&&&&&&++++++   ===========================",
"=====================   &&&&&&&&&&&&&&&OOOOOO&&&&&&&&&&&&&&&++++++   ===========================",
"=====================   &&&&&&&&&&&&&&&OOOOOO&&&&&&&&&&&&&&&++++++   ===========================",
"=====================      &&&&&&&&&&&&&&&&&&&&&&&&&&&&&&&&&+++      ===========================",
"=====================      &&&&&&&&&&&&&&&&&&&&&&&&&&&&&&&&&+++      ===========================",
"=====================      &&&&&&&&&&&&&&&&&&&&&&&&&&&&&&&&&+++      ===========================",
"========================                                          ==============================",
"========================                                          ==============================",
"==============================      $$$   OOOOOOOOO   $$$$$$$$$   ================@=============",
"==============================      $$$   OOOOOOOOO   $$$$$$$$$   ========@@@====@==============",
"===========================         $$$$$$         $$$$$$;;;$$$      =======@@===@==============",
"===========================         $$$$$$         $$$$$$;;;$$$      ========@@=@===============",
"===========================         $$$$$$         $$$$$$;;;$$$      ========@@=@@==============",
"===========================   $$$   $$$$$$$$$$$$$$$$$$   ;;;;;;$$$   =========@@=@==============",
"===========================   $$$   $$$$$$$$$$$$$$$$$$   ;;;;;;$$$   ===========================",
"======================@====   $$$   $$$;;;;;;;;;;;;$$$   ;;;;;;$$$   ===========================",
"=====================@@====   $$$   $$$;;;;;;;;;;;;$$$   ;;;;;;$$$   ===========================",
"=============@@=====@@=====   $$$   $$$;;;;;;;;;;;;$$$   ;;;;;;$$$   ===========================",
"==============@@@==@@======   $$$   ;;;;;;;;;;;;;;;;;;   ;;;;;;$$$   ===========================",
"===============@@==@=======   $$$   ;;;;;;;;;;;;;;;;;;   ;;;;;;$$$   ===========================",
"================@@=@@=@====         ;;;;;;;;;;;;;;;;;;               ===========================",
"=================@@@@=@====         ;;;;;;;;;;;;;;;;;;               ===========================",
"==================@@@@@====   +++   ;;;;;;;;;;;;;;;;;;   +++++++++   ===========================",
"===================@@@=====   +++   ;;;;;;;;;;;;;;;;;;   +++++++++   ===========================",
"===========================   +++   ;;;;;;;;;;;;;;;;;;   +++++++++   ===========================",
"===========================   +++   $$$;;;;;;;;;;;;;;;   &&&&&&+++   ===========================",
"===========================   +++   $$$;;;;;;;;;;;;;;;   &&&&&&+++   ===========================",
"===========================   +++   $$$$$$$$$$$$;;;$$$   &&&&&&+++   ===========================",
"===========================   +++   $$$$$$$$$$$$;;;$$$   &&&&&&+++   ===========================",
"===========================   +++   $$$$$$$$$$$$;;;$$$   &&&&&&+++   ===========================",
"===========================   +++            $$$$$$$$$   &&&&&&+++         =====================",
"============@====@=========   +++            $$$$$$$$$   &&&&&&+++         =====================",
"============@@==@@=========   +++   ######               &&&&&&+++   +++   =====================",
"============@@==@==========   +++   ######               &&&&&&+++   +++   =====@@=====@========",
"=============@@=@==========   +++   ---###############   &&&&&&+++++++++   =====@@@===@@========",
"=============@@=@==========   +++   ---###############   &&&&&&+++++++++   ======@@@@@@=========",
"===========@==@@@==========   +++   ---###############   &&&&&&+++++++++   =======@=@@@=========",
"===========@@=@@@==========         ---------      ---      &&&++++++      ========@=@@=========",
"============@@=@===========         ---------      ---      &&&++++++      ========@@@@=========",
"=============@=@===========@@=      ---------###   ------               ============@@@=========",
"===============@============@@      ---------###   ------               ============@@@=========",
"============================@@      ---------###   ------               =============@=@========",
"=============================@@@=   ---------###   ---------###   ==============================",
"=============================@@=@   ---------###   ---------###   ==============================",
"================================@   ---#########   ---#########   ==============================",
"=================================   ---#########   ---#########   ==============================",
"=================================   ---------###   ---------###   ==============================",
"=================================   ---------###   ---------###   ==============================",
"=================================   ---------###   ---------###   =======@======================",
"================================@   ---------###   ---------###   ======@@======================",
"=========================@@=====@   ---------###   ---------###   =====@@=======================",
"=========================@@@===@@                        ---###   =@==@@@=======================",
"=================@@=======@@===@=                        ---###   =@@=@@@=======================",
"=========@@@=====@@=======@@@=      ***%%%%%%      ***            ==@@@@========================",
"===========@@@==@@=======@=@@@      ***%%%%%%      ***            @@@@@@========================",
"=============@@@@========@@=@@      ***%%%%%%      ***            @@@@@@========================",
"=============@@@@=========@@@@   ******%%%%%%   ******%%%%%%%%%   =@@@@=========================",
"=============@@@@==========@@@   ******%%%%%%   ******%%%%%%%%%   =@============================",
"============================@=   %%%%%%%%%%%%   %%%%%%%%%%%%%%%   ==============================",
"==============================   %%%%%%%%%%%%   %%%%%%%%%%%%%%%   ==============================",
"=============================o   %%%%%%%%%%%%   %%%%%%%%%%%%%%%   ==============================",
"=============================o                                    o=============================",
"============================oo                                    o=============================",
"============================oooooooooooooooooooooooooooooooooooooo==============================",
"=============================ooooooooooooooooooooooooooooooooooo================================",
"================================================================================================"
};
